<?xml version="1.0" encoding="utf-8" standalone="no"?>
<!DOCTYPE svg PUBLIC "-//W3C//DTD SVG 1.1//EN"
  "http://www.w3.org/Graphics/SVG/1.1/DTD/svg11.dtd">
<!-- Created with matplotlib (http://matplotlib.org/) -->
<svg height="405pt" version="1.1" viewBox="0 0 509 405" width="509pt" xmlns="http://www.w3.org/2000/svg" xmlns:xlink="http://www.w3.org/1999/xlink">
 <defs>
  <style type="text/css">
*{stroke-linecap:butt;stroke-linejoin:round;}
  </style>
 </defs>
 <g id="figure_1">
  <g id="patch_1">
   <path d="M 0 405.773312 
L 509.76 405.773312 
L 509.76 0 
L 0 0 
z
" style="fill:#ffffff;"/>
  </g>
  <g id="axes_1">
   <g id="patch_2">
    <path d="M 56.16 121.977044 
L 502.56 121.977044 
L 502.56 24.14175 
L 56.16 24.14175 
z
" style="fill:#e5e5e5;"/>
   </g>
   <g id="matplotlib.axis_1">
    <g id="xtick_1">
     <g id="line2d_1">
      <path clip-path="url(#p44797ddded)" d="M 75.48394 121.977044 
L 75.48394 24.14175 
" style="fill:none;stroke:#ffffff;stroke-linecap:round;"/>
     </g>
     <g id="line2d_2"/>
    </g>
    <g id="xtick_2">
     <g id="line2d_3">
      <path clip-path="url(#p44797ddded)" d="M 157.329483 121.977044 
L 157.329483 24.14175 
" style="fill:none;stroke:#ffffff;stroke-linecap:round;"/>
     </g>
     <g id="line2d_4"/>
    </g>
    <g id="xtick_3">
     <g id="line2d_5">
      <path clip-path="url(#p44797ddded)" d="M 239.175025 121.977044 
L 239.175025 24.14175 
" style="fill:none;stroke:#ffffff;stroke-linecap:round;"/>
     </g>
     <g id="line2d_6"/>
    </g>
    <g id="xtick_4">
     <g id="line2d_7">
      <path clip-path="url(#p44797ddded)" d="M 321.020568 121.977044 
L 321.020568 24.14175 
" style="fill:none;stroke:#ffffff;stroke-linecap:round;"/>
     </g>
     <g id="line2d_8"/>
    </g>
    <g id="xtick_5">
     <g id="line2d_9">
      <path clip-path="url(#p44797ddded)" d="M 402.86611 121.977044 
L 402.86611 24.14175 
" style="fill:none;stroke:#ffffff;stroke-linecap:round;"/>
     </g>
     <g id="line2d_10"/>
    </g>
    <g id="xtick_6">
     <g id="line2d_11">
      <path clip-path="url(#p44797ddded)" d="M 484.711653 121.977044 
L 484.711653 24.14175 
" style="fill:none;stroke:#ffffff;stroke-linecap:round;"/>
     </g>
     <g id="line2d_12"/>
    </g>
   </g>
   <g id="matplotlib.axis_2">
    <g id="ytick_1">
     <g id="line2d_13">
      <path clip-path="url(#p44797ddded)" d="M 56.16 117.043202 
L 502.56 117.043202 
" style="fill:none;stroke:#ffffff;stroke-linecap:round;"/>
     </g>
     <g id="line2d_14"/>
     <g id="text_1">
      <!-- 0 -->
      <defs>
       <path d="M 31.78125 66.40625 
Q 24.171875 66.40625 20.328125 58.90625 
Q 16.5 51.421875 16.5 36.375 
Q 16.5 21.390625 20.328125 13.890625 
Q 24.171875 6.390625 31.78125 6.390625 
Q 39.453125 6.390625 43.28125 13.890625 
Q 47.125 21.390625 47.125 36.375 
Q 47.125 51.421875 43.28125 58.90625 
Q 39.453125 66.40625 31.78125 66.40625 
M 31.78125 74.21875 
Q 44.046875 74.21875 50.515625 64.515625 
Q 56.984375 54.828125 56.984375 36.375 
Q 56.984375 17.96875 50.515625 8.265625 
Q 44.046875 -1.421875 31.78125 -1.421875 
Q 19.53125 -1.421875 13.0625 8.265625 
Q 6.59375 17.96875 6.59375 36.375 
Q 6.59375 54.828125 13.0625 64.515625 
Q 19.53125 74.21875 31.78125 74.21875 
" id="DejaVuSans-30"/>
      </defs>
      <g style="fill:#555555;" transform="translate(42.7975 120.842421)scale(0.1 -0.1)">
       <use xlink:href="#DejaVuSans-30"/>
      </g>
     </g>
    </g>
    <g id="ytick_2">
     <g id="line2d_15">
      <path clip-path="url(#p44797ddded)" d="M 56.16 90.000395 
L 502.56 90.000395 
" style="fill:none;stroke:#ffffff;stroke-linecap:round;"/>
     </g>
     <g id="line2d_16"/>
     <g id="text_2">
      <!-- 25 -->
      <defs>
       <path d="M 19.1875 8.296875 
L 53.609375 8.296875 
L 53.609375 0 
L 7.328125 0 
L 7.328125 8.296875 
Q 12.9375 14.109375 22.625 23.890625 
Q 32.328125 33.6875 34.8125 36.53125 
Q 39.546875 41.84375 41.421875 45.53125 
Q 43.3125 49.21875 43.3125 52.78125 
Q 43.3125 58.59375 39.234375 62.25 
Q 35.15625 65.921875 28.609375 65.921875 
Q 23.96875 65.921875 18.8125 64.3125 
Q 13.671875 62.703125 7.8125 59.421875 
L 7.8125 69.390625 
Q 13.765625 71.78125 18.9375 73 
Q 24.125 74.21875 28.421875 74.21875 
Q 39.75 74.21875 46.484375 68.546875 
Q 53.21875 62.890625 53.21875 53.421875 
Q 53.21875 48.921875 51.53125 44.890625 
Q 49.859375 40.875 45.40625 35.40625 
Q 44.1875 33.984375 37.640625 27.21875 
Q 31.109375 20.453125 19.1875 8.296875 
" id="DejaVuSans-32"/>
       <path d="M 10.796875 72.90625 
L 49.515625 72.90625 
L 49.515625 64.59375 
L 19.828125 64.59375 
L 19.828125 46.734375 
Q 21.96875 47.46875 24.109375 47.828125 
Q 26.265625 48.1875 28.421875 48.1875 
Q 40.625 48.1875 47.75 41.5 
Q 54.890625 34.8125 54.890625 23.390625 
Q 54.890625 11.625 47.5625 5.09375 
Q 40.234375 -1.421875 26.90625 -1.421875 
Q 22.3125 -1.421875 17.546875 -0.640625 
Q 12.796875 0.140625 7.71875 1.703125 
L 7.71875 11.625 
Q 12.109375 9.234375 16.796875 8.0625 
Q 21.484375 6.890625 26.703125 6.890625 
Q 35.15625 6.890625 40.078125 11.328125 
Q 45.015625 15.765625 45.015625 23.390625 
Q 45.015625 31 40.078125 35.4375 
Q 35.15625 39.890625 26.703125 39.890625 
Q 22.75 39.890625 18.8125 39.015625 
Q 14.890625 38.140625 10.796875 36.28125 
z
" id="DejaVuSans-35"/>
      </defs>
      <g style="fill:#555555;" transform="translate(36.435 93.799614)scale(0.1 -0.1)">
       <use xlink:href="#DejaVuSans-32"/>
       <use x="63.623047" xlink:href="#DejaVuSans-35"/>
      </g>
     </g>
    </g>
    <g id="ytick_3">
     <g id="line2d_17">
      <path clip-path="url(#p44797ddded)" d="M 56.16 62.957588 
L 502.56 62.957588 
" style="fill:none;stroke:#ffffff;stroke-linecap:round;"/>
     </g>
     <g id="line2d_18"/>
     <g id="text_3">
      <!-- 50 -->
      <g style="fill:#555555;" transform="translate(36.435 66.756807)scale(0.1 -0.1)">
       <use xlink:href="#DejaVuSans-35"/>
       <use x="63.623047" xlink:href="#DejaVuSans-30"/>
      </g>
     </g>
    </g>
    <g id="ytick_4">
     <g id="line2d_19">
      <path clip-path="url(#p44797ddded)" d="M 56.16 35.914781 
L 502.56 35.914781 
" style="fill:none;stroke:#ffffff;stroke-linecap:round;"/>
     </g>
     <g id="line2d_20"/>
     <g id="text_4">
      <!-- 75 -->
      <defs>
       <path d="M 8.203125 72.90625 
L 55.078125 72.90625 
L 55.078125 68.703125 
L 28.609375 0 
L 18.3125 0 
L 43.21875 64.59375 
L 8.203125 64.59375 
z
" id="DejaVuSans-37"/>
      </defs>
      <g style="fill:#555555;" transform="translate(36.435 39.714)scale(0.1 -0.1)">
       <use xlink:href="#DejaVuSans-37"/>
       <use x="63.623047" xlink:href="#DejaVuSans-35"/>
      </g>
     </g>
    </g>
   </g>
   <g id="PolyCollection_1">
    <defs>
     <path d="M 76.450909 -288.73011 
L 76.450909 -330.810124 
L 78.384847 -332.688702 
L 80.318785 -334.211523 
L 82.252723 -333.832694 
L 84.186661 -331.476188 
L 86.120599 -317.943871 
L 88.054537 -318.104331 
L 89.988474 -326.856884 
L 91.922412 -323.707459 
L 93.85635 -315.986126 
L 95.790288 -316.415026 
L 97.724226 -323.148029 
L 99.658164 -319.969242 
L 101.592102 -314.323569 
L 103.52604 -310.066284 
L 105.459978 -307.138353 
L 107.393916 -305.199659 
L 109.327853 -303.898455 
L 111.261791 -302.836483 
L 113.195729 -301.603857 
L 115.129667 -299.921033 
L 117.063605 -298.029815 
L 118.997543 -296.30235 
L 120.931481 -295.021981 
L 122.865419 -294.116851 
L 124.799357 -293.426303 
L 126.733295 -292.816124 
L 128.667232 -292.257891 
L 130.60117 -291.749626 
L 132.535108 -291.289353 
L 134.469046 -290.875095 
L 136.402984 -290.504873 
L 138.336922 -290.176711 
L 140.27086 -289.888632 
L 142.204798 -289.638659 
L 144.138736 -289.424814 
L 146.072674 -289.24512 
L 148.006611 -289.097601 
L 149.940549 -288.980278 
L 151.874487 -288.891175 
L 153.808425 -288.828314 
L 155.742363 -288.789718 
L 157.676301 -288.773411 
L 159.610239 -288.777415 
L 161.544177 -288.799752 
L 163.478115 -288.838446 
L 165.412053 -288.891519 
L 167.34599 -288.956995 
L 169.279928 -289.032896 
L 171.213866 -289.117244 
L 171.213866 -288.73011 
L 171.213866 -288.73011 
L 169.279928 -288.73011 
L 167.34599 -288.73011 
L 165.412053 -288.73011 
L 163.478115 -288.73011 
L 161.544177 -288.73011 
L 159.610239 -288.73011 
L 157.676301 -288.73011 
L 155.742363 -288.73011 
L 153.808425 -288.73011 
L 151.874487 -288.73011 
L 149.940549 -288.73011 
L 148.006611 -288.73011 
L 146.072674 -288.73011 
L 144.138736 -288.73011 
L 142.204798 -288.73011 
L 140.27086 -288.73011 
L 138.336922 -288.73011 
L 136.402984 -288.73011 
L 134.469046 -288.73011 
L 132.535108 -288.73011 
L 130.60117 -288.73011 
L 128.667232 -288.73011 
L 126.733295 -288.73011 
L 124.799357 -288.73011 
L 122.865419 -288.73011 
L 120.931481 -288.73011 
L 118.997543 -288.73011 
L 117.063605 -288.73011 
L 115.129667 -288.73011 
L 113.195729 -288.73011 
L 111.261791 -288.73011 
L 109.327853 -288.73011 
L 107.393916 -288.73011 
L 105.459978 -288.73011 
L 103.52604 -288.73011 
L 101.592102 -288.73011 
L 99.658164 -288.73011 
L 97.724226 -288.73011 
L 95.790288 -288.73011 
L 93.85635 -288.73011 
L 91.922412 -288.73011 
L 89.988474 -288.73011 
L 88.054537 -288.73011 
L 86.120599 -288.73011 
L 84.186661 -288.73011 
L 82.252723 -288.73011 
L 80.318785 -288.73011 
L 78.384847 -288.73011 
L 76.450909 -288.73011 
z
" id="m6429897a26" style="stroke:#0087a8;stroke-opacity:0.5;stroke-width:0.5;"/>
    </defs>
    <g clip-path="url(#p44797ddded)">
     <use style="fill:#0087a8;fill-opacity:0.5;stroke:#0087a8;stroke-opacity:0.5;stroke-width:0.5;" x="0" xlink:href="#m6429897a26" y="405.773312"/>
    </g>
   </g>
   <g id="line2d_21">
    <path clip-path="url(#p44797ddded)" d="M 76.450909 74.963189 
L 78.384847 73.08461 
L 80.318785 71.561789 
L 82.252723 71.940618 
L 84.186661 74.297124 
L 86.120599 87.829441 
L 88.054537 87.668982 
L 89.988474 78.916428 
L 91.922412 82.065853 
L 93.85635 89.787186 
L 95.790288 89.358287 
L 97.724226 82.625284 
L 99.658164 85.804071 
L 101.592102 91.449743 
L 103.52604 95.707029 
L 105.459978 98.634959 
L 107.393916 100.573653 
L 109.327853 101.874858 
L 111.261791 102.93683 
L 113.195729 104.169455 
L 115.129667 105.85228 
L 117.063605 107.743497 
L 118.997543 109.470963 
L 120.931481 110.751332 
L 122.865419 111.656461 
L 124.799357 112.34701 
L 126.733295 112.957189 
L 128.667232 113.515422 
L 130.60117 114.023686 
L 132.535108 114.483959 
L 134.469046 114.898218 
L 136.402984 115.26844 
L 138.336922 115.596601 
L 140.27086 115.88468 
L 142.204798 116.134653 
L 144.138736 116.348498 
L 146.072674 116.528192 
L 148.006611 116.675712 
L 149.940549 116.793035 
L 151.874487 116.882138 
L 153.808425 116.944999 
L 155.742363 116.983594 
L 157.676301 116.999901 
L 159.610239 116.995898 
L 161.544177 116.97356 
L 163.478115 116.934866 
L 165.412053 116.881793 
L 167.34599 116.816317 
L 169.279928 116.740417 
L 171.213866 116.656068 
" style="fill:none;stroke:#0087a8;stroke-linecap:round;stroke-width:1.75;"/>
   </g>
   <g id="patch_3">
    <path d="M 56.16 121.977044 
L 56.16 24.14175 
" style="fill:none;stroke:#ffffff;stroke-linecap:square;stroke-linejoin:miter;"/>
   </g>
   <g id="patch_4">
    <path d="M 502.56 121.977044 
L 502.56 24.14175 
" style="fill:none;stroke:#ffffff;stroke-linecap:square;stroke-linejoin:miter;"/>
   </g>
   <g id="patch_5">
    <path d="M 56.16 121.977044 
L 502.56 121.977044 
" style="fill:none;stroke:#ffffff;stroke-linecap:square;stroke-linejoin:miter;"/>
   </g>
   <g id="patch_6">
    <path d="M 56.16 24.14175 
L 502.56 24.14175 
" style="fill:none;stroke:#ffffff;stroke-linecap:square;stroke-linejoin:miter;"/>
   </g>
   <g id="text_5">
    <!-- Gaps -->
    <defs>
     <path d="M 74.703125 5.421875 
Q 67.671875 2 60.109375 0.28125 
Q 52.546875 -1.421875 44.484375 -1.421875 
Q 26.265625 -1.421875 15.625 8.765625 
Q 4.984375 18.953125 4.984375 36.375 
Q 4.984375 54 15.8125 64.109375 
Q 26.65625 74.21875 45.515625 74.21875 
Q 52.78125 74.21875 59.4375 72.84375 
Q 66.109375 71.484375 72.015625 68.796875 
L 72.015625 53.71875 
Q 65.921875 57.171875 59.890625 58.875 
Q 53.859375 60.59375 47.796875 60.59375 
Q 36.578125 60.59375 30.5 54.3125 
Q 24.421875 48.046875 24.421875 36.375 
Q 24.421875 24.8125 30.28125 18.5 
Q 36.140625 12.203125 46.921875 12.203125 
Q 49.859375 12.203125 52.375 12.5625 
Q 54.890625 12.9375 56.890625 13.71875 
L 56.890625 27.875 
L 45.40625 27.875 
L 45.40625 40.484375 
L 74.703125 40.484375 
z
" id="DejaVuSans-Bold-47"/>
     <path d="M 32.90625 24.609375 
Q 27.4375 24.609375 24.671875 22.75 
Q 21.921875 20.90625 21.921875 17.28125 
Q 21.921875 13.96875 24.140625 12.078125 
Q 26.375 10.203125 30.328125 10.203125 
Q 35.25 10.203125 38.625 13.734375 
Q 42 17.28125 42 22.609375 
L 42 24.609375 
z
M 59.625 31.203125 
L 59.625 0 
L 42 0 
L 42 8.109375 
Q 38.484375 3.125 34.078125 0.84375 
Q 29.6875 -1.421875 23.390625 -1.421875 
Q 14.890625 -1.421875 9.59375 3.53125 
Q 4.296875 8.5 4.296875 16.40625 
Q 4.296875 26.03125 10.90625 30.515625 
Q 17.53125 35.015625 31.6875 35.015625 
L 42 35.015625 
L 42 36.375 
Q 42 40.53125 38.71875 42.453125 
Q 35.453125 44.390625 28.515625 44.390625 
Q 22.90625 44.390625 18.0625 43.265625 
Q 13.234375 42.140625 9.078125 39.890625 
L 9.078125 53.21875 
Q 14.703125 54.59375 20.359375 55.296875 
Q 26.03125 56 31.6875 56 
Q 46.484375 56 53.046875 50.171875 
Q 59.625 44.34375 59.625 31.203125 
" id="DejaVuSans-Bold-61"/>
     <path d="M 25.875 7.90625 
L 25.875 -20.796875 
L 8.40625 -20.796875 
L 8.40625 54.6875 
L 25.875 54.6875 
L 25.875 46.6875 
Q 29.5 51.46875 33.890625 53.734375 
Q 38.28125 56 44 56 
Q 54.109375 56 60.59375 47.96875 
Q 67.09375 39.9375 67.09375 27.296875 
Q 67.09375 14.65625 60.59375 6.609375 
Q 54.109375 -1.421875 44 -1.421875 
Q 38.28125 -1.421875 33.890625 0.84375 
Q 29.5 3.125 25.875 7.90625 
M 37.5 43.3125 
Q 31.890625 43.3125 28.875 39.1875 
Q 25.875 35.0625 25.875 27.296875 
Q 25.875 19.53125 28.875 15.40625 
Q 31.890625 11.28125 37.5 11.28125 
Q 43.109375 11.28125 46.0625 15.375 
Q 49.03125 19.484375 49.03125 27.296875 
Q 49.03125 35.109375 46.0625 39.203125 
Q 43.109375 43.3125 37.5 43.3125 
" id="DejaVuSans-Bold-70"/>
     <path d="M 51.125 52.984375 
L 51.125 39.703125 
Q 45.515625 42.046875 40.28125 43.21875 
Q 35.0625 44.390625 30.421875 44.390625 
Q 25.4375 44.390625 23.015625 43.140625 
Q 20.609375 41.890625 20.609375 39.3125 
Q 20.609375 37.203125 22.4375 36.078125 
Q 24.265625 34.96875 29 34.421875 
L 32.078125 33.984375 
Q 45.515625 32.28125 50.140625 28.375 
Q 54.78125 24.46875 54.78125 16.109375 
Q 54.78125 7.375 48.328125 2.96875 
Q 41.890625 -1.421875 29.109375 -1.421875 
Q 23.6875 -1.421875 17.890625 -0.5625 
Q 12.109375 0.296875 6 2 
L 6 15.28125 
Q 11.234375 12.75 16.71875 11.46875 
Q 22.21875 10.203125 27.875 10.203125 
Q 33.015625 10.203125 35.59375 11.609375 
Q 38.1875 13.03125 38.1875 15.828125 
Q 38.1875 18.171875 36.40625 19.3125 
Q 34.625 20.453125 29.296875 21.09375 
L 26.21875 21.484375 
Q 14.546875 22.953125 9.859375 26.90625 
Q 5.171875 30.859375 5.171875 38.921875 
Q 5.171875 47.609375 11.125 51.796875 
Q 17.09375 56 29.390625 56 
Q 34.234375 56 39.546875 55.265625 
Q 44.875 54.546875 51.125 52.984375 
" id="DejaVuSans-Bold-73"/>
    </defs>
    <g style="fill:#0087a8;" transform="translate(259.15275 18.14175)scale(0.144 -0.144)">
     <use xlink:href="#DejaVuSans-Bold-47"/>
     <use x="82.080078" xlink:href="#DejaVuSans-Bold-61"/>
     <use x="149.560547" xlink:href="#DejaVuSans-Bold-70"/>
     <use x="221.142578" xlink:href="#DejaVuSans-Bold-73"/>
    </g>
   </g>
  </g>
  <g id="axes_2">
   <g id="patch_7">
    <path d="M 56.16 239.379397 
L 502.56 239.379397 
L 502.56 141.544103 
L 56.16 141.544103 
z
" style="fill:#e5e5e5;"/>
   </g>
   <g id="matplotlib.axis_3">
    <g id="xtick_7">
     <g id="line2d_22">
      <path clip-path="url(#pb94c499c77)" d="M 75.48394 239.379397 
L 75.48394 141.544103 
" style="fill:none;stroke:#ffffff;stroke-linecap:round;"/>
     </g>
     <g id="line2d_23"/>
    </g>
    <g id="xtick_8">
     <g id="line2d_24">
      <path clip-path="url(#pb94c499c77)" d="M 157.329483 239.379397 
L 157.329483 141.544103 
" style="fill:none;stroke:#ffffff;stroke-linecap:round;"/>
     </g>
     <g id="line2d_25"/>
    </g>
    <g id="xtick_9">
     <g id="line2d_26">
      <path clip-path="url(#pb94c499c77)" d="M 239.175025 239.379397 
L 239.175025 141.544103 
" style="fill:none;stroke:#ffffff;stroke-linecap:round;"/>
     </g>
     <g id="line2d_27"/>
    </g>
    <g id="xtick_10">
     <g id="line2d_28">
      <path clip-path="url(#pb94c499c77)" d="M 321.020568 239.379397 
L 321.020568 141.544103 
" style="fill:none;stroke:#ffffff;stroke-linecap:round;"/>
     </g>
     <g id="line2d_29"/>
    </g>
    <g id="xtick_11">
     <g id="line2d_30">
      <path clip-path="url(#pb94c499c77)" d="M 402.86611 239.379397 
L 402.86611 141.544103 
" style="fill:none;stroke:#ffffff;stroke-linecap:round;"/>
     </g>
     <g id="line2d_31"/>
    </g>
    <g id="xtick_12">
     <g id="line2d_32">
      <path clip-path="url(#pb94c499c77)" d="M 484.711653 239.379397 
L 484.711653 141.544103 
" style="fill:none;stroke:#ffffff;stroke-linecap:round;"/>
     </g>
     <g id="line2d_33"/>
    </g>
   </g>
   <g id="matplotlib.axis_4">
    <g id="ytick_5">
     <g id="line2d_34">
      <path clip-path="url(#pb94c499c77)" d="M 56.16 234.445555 
L 502.56 234.445555 
" style="fill:none;stroke:#ffffff;stroke-linecap:round;"/>
     </g>
     <g id="line2d_35"/>
     <g id="text_6">
      <!-- 0 -->
      <g style="fill:#555555;" transform="translate(42.7975 238.244774)scale(0.1 -0.1)">
       <use xlink:href="#DejaVuSans-30"/>
      </g>
     </g>
    </g>
    <g id="ytick_6">
     <g id="line2d_36">
      <path clip-path="url(#pb94c499c77)" d="M 56.16 207.402748 
L 502.56 207.402748 
" style="fill:none;stroke:#ffffff;stroke-linecap:round;"/>
     </g>
     <g id="line2d_37"/>
     <g id="text_7">
      <!-- 25 -->
      <g style="fill:#555555;" transform="translate(36.435 211.201967)scale(0.1 -0.1)">
       <use xlink:href="#DejaVuSans-32"/>
       <use x="63.623047" xlink:href="#DejaVuSans-35"/>
      </g>
     </g>
    </g>
    <g id="ytick_7">
     <g id="line2d_38">
      <path clip-path="url(#pb94c499c77)" d="M 56.16 180.359941 
L 502.56 180.359941 
" style="fill:none;stroke:#ffffff;stroke-linecap:round;"/>
     </g>
     <g id="line2d_39"/>
     <g id="text_8">
      <!-- 50 -->
      <g style="fill:#555555;" transform="translate(36.435 184.15916)scale(0.1 -0.1)">
       <use xlink:href="#DejaVuSans-35"/>
       <use x="63.623047" xlink:href="#DejaVuSans-30"/>
      </g>
     </g>
    </g>
    <g id="ytick_8">
     <g id="line2d_40">
      <path clip-path="url(#pb94c499c77)" d="M 56.16 153.317134 
L 502.56 153.317134 
" style="fill:none;stroke:#ffffff;stroke-linecap:round;"/>
     </g>
     <g id="line2d_41"/>
     <g id="text_9">
      <!-- 75 -->
      <g style="fill:#555555;" transform="translate(36.435 157.116353)scale(0.1 -0.1)">
       <use xlink:href="#DejaVuSans-37"/>
       <use x="63.623047" xlink:href="#DejaVuSans-35"/>
      </g>
     </g>
    </g>
   </g>
   <g id="PolyCollection_2">
    <defs>
     <path d="M 77.244961 -171.327757 
L 77.244961 -189.711719 
L 80.32754 -193.005422 
L 83.410119 -208.977916 
L 86.492698 -259.782151 
L 89.575276 -256.68785 
L 92.657855 -238.400971 
L 95.740434 -224.419964 
L 98.823013 -213.866228 
L 101.905592 -205.896045 
L 104.988171 -199.805215 
L 108.07075 -194.924421 
L 111.153328 -190.695114 
L 114.235907 -187.001828 
L 117.318486 -183.839869 
L 120.401065 -181.199262 
L 123.483644 -179.048922 
L 126.566223 -177.352485 
L 129.648802 -176.073587 
L 132.73138 -175.175865 
L 135.813959 -174.622954 
L 138.896538 -174.376813 
L 141.979117 -174.392693 
L 145.061696 -174.624165 
L 148.144275 -175.024802 
L 151.226854 -175.548177 
L 154.309432 -176.14786 
L 157.392011 -176.773057 
L 160.47459 -177.35549 
L 163.557169 -177.822517 
L 166.639748 -178.101492 
L 169.722327 -178.119771 
L 172.804906 -177.80471 
L 175.887484 -177.116091 
L 178.970063 -176.14341 
L 182.052642 -175.008588 
L 185.135221 -173.833547 
L 188.2178 -172.740209 
L 191.300379 -171.850495 
L 194.382958 -171.257389 
L 197.465536 -170.938119 
L 200.548115 -170.840974 
L 203.630694 -170.914244 
L 206.713273 -171.106217 
L 209.795852 -171.365182 
L 212.878431 -171.63943 
L 215.96101 -171.877249 
L 219.043588 -172.026928 
L 222.126167 -172.036757 
L 225.208746 -171.855024 
L 228.291325 -171.43002 
L 228.291325 -171.327757 
L 228.291325 -171.327757 
L 225.208746 -171.327757 
L 222.126167 -171.327757 
L 219.043588 -171.327757 
L 215.96101 -171.327757 
L 212.878431 -171.327757 
L 209.795852 -171.327757 
L 206.713273 -171.327757 
L 203.630694 -171.327757 
L 200.548115 -171.327757 
L 197.465536 -171.327757 
L 194.382958 -171.327757 
L 191.300379 -171.327757 
L 188.2178 -171.327757 
L 185.135221 -171.327757 
L 182.052642 -171.327757 
L 178.970063 -171.327757 
L 175.887484 -171.327757 
L 172.804906 -171.327757 
L 169.722327 -171.327757 
L 166.639748 -171.327757 
L 163.557169 -171.327757 
L 160.47459 -171.327757 
L 157.392011 -171.327757 
L 154.309432 -171.327757 
L 151.226854 -171.327757 
L 148.144275 -171.327757 
L 145.061696 -171.327757 
L 141.979117 -171.327757 
L 138.896538 -171.327757 
L 135.813959 -171.327757 
L 132.73138 -171.327757 
L 129.648802 -171.327757 
L 126.566223 -171.327757 
L 123.483644 -171.327757 
L 120.401065 -171.327757 
L 117.318486 -171.327757 
L 114.235907 -171.327757 
L 111.153328 -171.327757 
L 108.07075 -171.327757 
L 104.988171 -171.327757 
L 101.905592 -171.327757 
L 98.823013 -171.327757 
L 95.740434 -171.327757 
L 92.657855 -171.327757 
L 89.575276 -171.327757 
L 86.492698 -171.327757 
L 83.410119 -171.327757 
L 80.32754 -171.327757 
L 77.244961 -171.327757 
z
" id="m638d524d02" style="stroke:#ff2929;stroke-opacity:0.5;stroke-width:0.5;"/>
    </defs>
    <g clip-path="url(#pb94c499c77)">
     <use style="fill:#ff2929;fill-opacity:0.5;stroke:#ff2929;stroke-opacity:0.5;stroke-width:0.5;" x="0" xlink:href="#m638d524d02" y="405.773312"/>
    </g>
   </g>
   <g id="line2d_42">
    <path clip-path="url(#pb94c499c77)" d="M 77.244961 216.061593 
L 80.32754 212.767891 
L 83.410119 196.795397 
L 86.492698 145.991162 
L 89.575276 149.085462 
L 92.657855 167.372341 
L 95.740434 181.353349 
L 98.823013 191.907084 
L 101.905592 199.877268 
L 104.988171 205.968097 
L 108.07075 210.848892 
L 111.153328 215.078199 
L 114.235907 218.771484 
L 117.318486 221.933444 
L 120.401065 224.574051 
L 123.483644 226.724391 
L 126.566223 228.420828 
L 129.648802 229.699725 
L 132.73138 230.597448 
L 135.813959 231.150359 
L 138.896538 231.396499 
L 141.979117 231.380619 
L 145.061696 231.149147 
L 148.144275 230.74851 
L 151.226854 230.225136 
L 154.309432 229.625452 
L 157.392011 229.000256 
L 160.47459 228.417822 
L 163.557169 227.950796 
L 166.639748 227.671821 
L 169.722327 227.653542 
L 172.804906 227.968603 
L 175.887484 228.657221 
L 178.970063 229.629902 
L 182.052642 230.764724 
L 185.135221 231.939765 
L 188.2178 233.033104 
L 191.300379 233.922818 
L 194.382958 234.515923 
L 197.465536 234.835193 
L 200.548115 234.932338 
L 203.630694 234.859069 
L 206.713273 234.667096 
L 209.795852 234.40813 
L 212.878431 234.133883 
L 215.96101 233.896064 
L 219.043588 233.746385 
L 222.126167 233.736556 
L 225.208746 233.918288 
L 228.291325 234.343293 
" style="fill:none;stroke:#ff2929;stroke-linecap:round;stroke-width:1.75;"/>
   </g>
   <g id="patch_8">
    <path d="M 56.16 239.379397 
L 56.16 141.544103 
" style="fill:none;stroke:#ffffff;stroke-linecap:square;stroke-linejoin:miter;"/>
   </g>
   <g id="patch_9">
    <path d="M 502.56 239.379397 
L 502.56 141.544103 
" style="fill:none;stroke:#ffffff;stroke-linecap:square;stroke-linejoin:miter;"/>
   </g>
   <g id="patch_10">
    <path d="M 56.16 239.379397 
L 502.56 239.379397 
" style="fill:none;stroke:#ffffff;stroke-linecap:square;stroke-linejoin:miter;"/>
   </g>
   <g id="patch_11">
    <path d="M 56.16 141.544103 
L 502.56 141.544103 
" style="fill:none;stroke:#ffffff;stroke-linecap:square;stroke-linejoin:miter;"/>
   </g>
   <g id="text_10">
    <!-- Missing data -->
    <defs>
     <path d="M 9.1875 72.90625 
L 33.109375 72.90625 
L 49.703125 33.890625 
L 66.40625 72.90625 
L 90.28125 72.90625 
L 90.28125 0 
L 72.515625 0 
L 72.515625 53.328125 
L 55.71875 14.015625 
L 43.796875 14.015625 
L 27 53.328125 
L 27 0 
L 9.1875 0 
z
" id="DejaVuSans-Bold-4d"/>
     <path d="M 8.40625 54.6875 
L 25.875 54.6875 
L 25.875 0 
L 8.40625 0 
z
M 8.40625 75.984375 
L 25.875 75.984375 
L 25.875 61.71875 
L 8.40625 61.71875 
z
" id="DejaVuSans-Bold-69"/>
     <path d="M 63.375 33.296875 
L 63.375 0 
L 45.796875 0 
L 45.796875 5.421875 
L 45.796875 25.484375 
Q 45.796875 32.5625 45.484375 35.25 
Q 45.171875 37.9375 44.390625 39.203125 
Q 43.359375 40.921875 41.59375 41.875 
Q 39.84375 42.828125 37.59375 42.828125 
Q 32.125 42.828125 29 38.59375 
Q 25.875 34.375 25.875 26.90625 
L 25.875 0 
L 8.40625 0 
L 8.40625 54.6875 
L 25.875 54.6875 
L 25.875 46.6875 
Q 29.828125 51.46875 34.265625 53.734375 
Q 38.71875 56 44.09375 56 
Q 53.5625 56 58.46875 50.1875 
Q 63.375 44.390625 63.375 33.296875 
" id="DejaVuSans-Bold-6e"/>
     <path d="M 45.609375 9.28125 
Q 42 4.5 37.640625 2.25 
Q 33.296875 0 27.59375 0 
Q 17.578125 0 11.03125 7.875 
Q 4.5 15.765625 4.5 27.984375 
Q 4.5 40.234375 11.03125 48.0625 
Q 17.578125 55.90625 27.59375 55.90625 
Q 33.296875 55.90625 37.640625 53.65625 
Q 42 51.421875 45.609375 46.578125 
L 45.609375 54.6875 
L 63.1875 54.6875 
L 63.1875 5.515625 
Q 63.1875 -7.671875 54.859375 -14.625 
Q 46.53125 -21.578125 30.71875 -21.578125 
Q 25.59375 -21.578125 20.796875 -20.796875 
Q 16.015625 -20.015625 11.1875 -18.40625 
L 11.1875 -4.78125 
Q 15.765625 -7.421875 20.15625 -8.71875 
Q 24.5625 -10.015625 29 -10.015625 
Q 37.59375 -10.015625 41.59375 -6.25 
Q 45.609375 -2.484375 45.609375 5.515625 
z
M 34.078125 43.3125 
Q 28.65625 43.3125 25.625 39.296875 
Q 22.609375 35.296875 22.609375 27.984375 
Q 22.609375 20.453125 25.53125 16.578125 
Q 28.46875 12.703125 34.078125 12.703125 
Q 39.546875 12.703125 42.578125 16.703125 
Q 45.609375 20.703125 45.609375 27.984375 
Q 45.609375 35.296875 42.578125 39.296875 
Q 39.546875 43.3125 34.078125 43.3125 
" id="DejaVuSans-Bold-67"/>
     <path id="DejaVuSans-Bold-20"/>
     <path d="M 45.609375 46.6875 
L 45.609375 75.984375 
L 63.1875 75.984375 
L 63.1875 0 
L 45.609375 0 
L 45.609375 7.90625 
Q 42 3.078125 37.640625 0.828125 
Q 33.296875 -1.421875 27.59375 -1.421875 
Q 17.484375 -1.421875 10.984375 6.609375 
Q 4.5 14.65625 4.5 27.296875 
Q 4.5 39.9375 10.984375 47.96875 
Q 17.484375 56 27.59375 56 
Q 33.25 56 37.625 53.734375 
Q 42 51.46875 45.609375 46.6875 
M 34.078125 11.28125 
Q 39.703125 11.28125 42.65625 15.375 
Q 45.609375 19.484375 45.609375 27.296875 
Q 45.609375 35.109375 42.65625 39.203125 
Q 39.703125 43.3125 34.078125 43.3125 
Q 28.515625 43.3125 25.5625 39.203125 
Q 22.609375 35.109375 22.609375 27.296875 
Q 22.609375 19.484375 25.5625 15.375 
Q 28.515625 11.28125 34.078125 11.28125 
" id="DejaVuSans-Bold-64"/>
     <path d="M 27.484375 70.21875 
L 27.484375 54.6875 
L 45.515625 54.6875 
L 45.515625 42.1875 
L 27.484375 42.1875 
L 27.484375 19 
Q 27.484375 15.1875 29 13.84375 
Q 30.515625 12.5 35.015625 12.5 
L 44 12.5 
L 44 0 
L 29 0 
Q 18.65625 0 14.328125 4.3125 
Q 10.015625 8.640625 10.015625 19 
L 10.015625 42.1875 
L 1.3125 42.1875 
L 1.3125 54.6875 
L 10.015625 54.6875 
L 10.015625 70.21875 
z
" id="DejaVuSans-Bold-74"/>
    </defs>
    <g style="fill:#ff2929;" transform="translate(227.58975 135.544103)scale(0.144 -0.144)">
     <use xlink:href="#DejaVuSans-Bold-4d"/>
     <use x="99.511719" xlink:href="#DejaVuSans-Bold-69"/>
     <use x="133.789062" xlink:href="#DejaVuSans-Bold-73"/>
     <use x="193.310547" xlink:href="#DejaVuSans-Bold-73"/>
     <use x="252.832031" xlink:href="#DejaVuSans-Bold-69"/>
     <use x="287.109375" xlink:href="#DejaVuSans-Bold-6e"/>
     <use x="358.300781" xlink:href="#DejaVuSans-Bold-67"/>
     <use x="429.882812" xlink:href="#DejaVuSans-Bold-20"/>
     <use x="464.697266" xlink:href="#DejaVuSans-Bold-64"/>
     <use x="536.279297" xlink:href="#DejaVuSans-Bold-61"/>
     <use x="603.759766" xlink:href="#DejaVuSans-Bold-74"/>
     <use x="651.5625" xlink:href="#DejaVuSans-Bold-61"/>
    </g>
   </g>
  </g>
  <g id="axes_3">
   <g id="patch_12">
    <path d="M 56.16 356.78175 
L 502.56 356.78175 
L 502.56 258.946456 
L 56.16 258.946456 
z
" style="fill:#e5e5e5;"/>
   </g>
   <g id="matplotlib.axis_5">
    <g id="xtick_13">
     <g id="line2d_43">
      <path clip-path="url(#p0d07e3e9cc)" d="M 75.48394 356.78175 
L 75.48394 258.946456 
" style="fill:none;stroke:#ffffff;stroke-linecap:round;"/>
     </g>
     <g id="line2d_44"/>
     <g id="text_11">
      <!-- 0.0 -->
      <defs>
       <path d="M 10.6875 12.40625 
L 21 12.40625 
L 21 0 
L 10.6875 0 
z
" id="DejaVuSans-2e"/>
      </defs>
      <g style="fill:#555555;" transform="translate(67.532378 371.380187)scale(0.1 -0.1)">
       <use xlink:href="#DejaVuSans-30"/>
       <use x="63.623047" xlink:href="#DejaVuSans-2e"/>
       <use x="95.410156" xlink:href="#DejaVuSans-30"/>
      </g>
     </g>
    </g>
    <g id="xtick_14">
     <g id="line2d_45">
      <path clip-path="url(#p0d07e3e9cc)" d="M 157.329483 356.78175 
L 157.329483 258.946456 
" style="fill:none;stroke:#ffffff;stroke-linecap:round;"/>
     </g>
     <g id="line2d_46"/>
     <g id="text_12">
      <!-- 0.2 -->
      <g style="fill:#555555;" transform="translate(149.37792 371.380187)scale(0.1 -0.1)">
       <use xlink:href="#DejaVuSans-30"/>
       <use x="63.623047" xlink:href="#DejaVuSans-2e"/>
       <use x="95.410156" xlink:href="#DejaVuSans-32"/>
      </g>
     </g>
    </g>
    <g id="xtick_15">
     <g id="line2d_47">
      <path clip-path="url(#p0d07e3e9cc)" d="M 239.175025 356.78175 
L 239.175025 258.946456 
" style="fill:none;stroke:#ffffff;stroke-linecap:round;"/>
     </g>
     <g id="line2d_48"/>
     <g id="text_13">
      <!-- 0.4 -->
      <defs>
       <path d="M 37.796875 64.3125 
L 12.890625 25.390625 
L 37.796875 25.390625 
z
M 35.203125 72.90625 
L 47.609375 72.90625 
L 47.609375 25.390625 
L 58.015625 25.390625 
L 58.015625 17.1875 
L 47.609375 17.1875 
L 47.609375 0 
L 37.796875 0 
L 37.796875 17.1875 
L 4.890625 17.1875 
L 4.890625 26.703125 
z
" id="DejaVuSans-34"/>
      </defs>
      <g style="fill:#555555;" transform="translate(231.223463 371.380187)scale(0.1 -0.1)">
       <use xlink:href="#DejaVuSans-30"/>
       <use x="63.623047" xlink:href="#DejaVuSans-2e"/>
       <use x="95.410156" xlink:href="#DejaVuSans-34"/>
      </g>
     </g>
    </g>
    <g id="xtick_16">
     <g id="line2d_49">
      <path clip-path="url(#p0d07e3e9cc)" d="M 321.020568 356.78175 
L 321.020568 258.946456 
" style="fill:none;stroke:#ffffff;stroke-linecap:round;"/>
     </g>
     <g id="line2d_50"/>
     <g id="text_14">
      <!-- 0.6 -->
      <defs>
       <path d="M 33.015625 40.375 
Q 26.375 40.375 22.484375 35.828125 
Q 18.609375 31.296875 18.609375 23.390625 
Q 18.609375 15.53125 22.484375 10.953125 
Q 26.375 6.390625 33.015625 6.390625 
Q 39.65625 6.390625 43.53125 10.953125 
Q 47.40625 15.53125 47.40625 23.390625 
Q 47.40625 31.296875 43.53125 35.828125 
Q 39.65625 40.375 33.015625 40.375 
M 52.59375 71.296875 
L 52.59375 62.3125 
Q 48.875 64.0625 45.09375 64.984375 
Q 41.3125 65.921875 37.59375 65.921875 
Q 27.828125 65.921875 22.671875 59.328125 
Q 17.53125 52.734375 16.796875 39.40625 
Q 19.671875 43.65625 24.015625 45.921875 
Q 28.375 48.1875 33.59375 48.1875 
Q 44.578125 48.1875 50.953125 41.515625 
Q 57.328125 34.859375 57.328125 23.390625 
Q 57.328125 12.15625 50.6875 5.359375 
Q 44.046875 -1.421875 33.015625 -1.421875 
Q 20.359375 -1.421875 13.671875 8.265625 
Q 6.984375 17.96875 6.984375 36.375 
Q 6.984375 53.65625 15.1875 63.9375 
Q 23.390625 74.21875 37.203125 74.21875 
Q 40.921875 74.21875 44.703125 73.484375 
Q 48.484375 72.75 52.59375 71.296875 
" id="DejaVuSans-36"/>
      </defs>
      <g style="fill:#555555;" transform="translate(313.069005 371.380187)scale(0.1 -0.1)">
       <use xlink:href="#DejaVuSans-30"/>
       <use x="63.623047" xlink:href="#DejaVuSans-2e"/>
       <use x="95.410156" xlink:href="#DejaVuSans-36"/>
      </g>
     </g>
    </g>
    <g id="xtick_17">
     <g id="line2d_51">
      <path clip-path="url(#p0d07e3e9cc)" d="M 402.86611 356.78175 
L 402.86611 258.946456 
" style="fill:none;stroke:#ffffff;stroke-linecap:round;"/>
     </g>
     <g id="line2d_52"/>
     <g id="text_15">
      <!-- 0.8 -->
      <defs>
       <path d="M 31.78125 34.625 
Q 24.75 34.625 20.71875 30.859375 
Q 16.703125 27.09375 16.703125 20.515625 
Q 16.703125 13.921875 20.71875 10.15625 
Q 24.75 6.390625 31.78125 6.390625 
Q 38.8125 6.390625 42.859375 10.171875 
Q 46.921875 13.96875 46.921875 20.515625 
Q 46.921875 27.09375 42.890625 30.859375 
Q 38.875 34.625 31.78125 34.625 
M 21.921875 38.8125 
Q 15.578125 40.375 12.03125 44.71875 
Q 8.5 49.078125 8.5 55.328125 
Q 8.5 64.0625 14.71875 69.140625 
Q 20.953125 74.21875 31.78125 74.21875 
Q 42.671875 74.21875 48.875 69.140625 
Q 55.078125 64.0625 55.078125 55.328125 
Q 55.078125 49.078125 51.53125 44.71875 
Q 48 40.375 41.703125 38.8125 
Q 48.828125 37.15625 52.796875 32.3125 
Q 56.78125 27.484375 56.78125 20.515625 
Q 56.78125 9.90625 50.3125 4.234375 
Q 43.84375 -1.421875 31.78125 -1.421875 
Q 19.734375 -1.421875 13.25 4.234375 
Q 6.78125 9.90625 6.78125 20.515625 
Q 6.78125 27.484375 10.78125 32.3125 
Q 14.796875 37.15625 21.921875 38.8125 
M 18.3125 54.390625 
Q 18.3125 48.734375 21.84375 45.5625 
Q 25.390625 42.390625 31.78125 42.390625 
Q 38.140625 42.390625 41.71875 45.5625 
Q 45.3125 48.734375 45.3125 54.390625 
Q 45.3125 60.0625 41.71875 63.234375 
Q 38.140625 66.40625 31.78125 66.40625 
Q 25.390625 66.40625 21.84375 63.234375 
Q 18.3125 60.0625 18.3125 54.390625 
" id="DejaVuSans-38"/>
      </defs>
      <g style="fill:#555555;" transform="translate(394.914548 371.380187)scale(0.1 -0.1)">
       <use xlink:href="#DejaVuSans-30"/>
       <use x="63.623047" xlink:href="#DejaVuSans-2e"/>
       <use x="95.410156" xlink:href="#DejaVuSans-38"/>
      </g>
     </g>
    </g>
    <g id="xtick_18">
     <g id="line2d_53">
      <path clip-path="url(#p0d07e3e9cc)" d="M 484.711653 356.78175 
L 484.711653 258.946456 
" style="fill:none;stroke:#ffffff;stroke-linecap:round;"/>
     </g>
     <g id="line2d_54"/>
     <g id="text_16">
      <!-- 1.0 -->
      <defs>
       <path d="M 12.40625 8.296875 
L 28.515625 8.296875 
L 28.515625 63.921875 
L 10.984375 60.40625 
L 10.984375 69.390625 
L 28.421875 72.90625 
L 38.28125 72.90625 
L 38.28125 8.296875 
L 54.390625 8.296875 
L 54.390625 0 
L 12.40625 0 
z
" id="DejaVuSans-31"/>
      </defs>
      <g style="fill:#555555;" transform="translate(476.76009 371.380187)scale(0.1 -0.1)">
       <use xlink:href="#DejaVuSans-31"/>
       <use x="63.623047" xlink:href="#DejaVuSans-2e"/>
       <use x="95.410156" xlink:href="#DejaVuSans-30"/>
      </g>
     </g>
    </g>
   </g>
   <g id="matplotlib.axis_6">
    <g id="ytick_9">
     <g id="line2d_55">
      <path clip-path="url(#p0d07e3e9cc)" d="M 56.16 351.847908 
L 502.56 351.847908 
" style="fill:none;stroke:#ffffff;stroke-linecap:round;"/>
     </g>
     <g id="line2d_56"/>
     <g id="text_17">
      <!-- 0 -->
      <g style="fill:#555555;" transform="translate(42.7975 355.647127)scale(0.1 -0.1)">
       <use xlink:href="#DejaVuSans-30"/>
      </g>
     </g>
    </g>
    <g id="ytick_10">
     <g id="line2d_57">
      <path clip-path="url(#p0d07e3e9cc)" d="M 56.16 324.805101 
L 502.56 324.805101 
" style="fill:none;stroke:#ffffff;stroke-linecap:round;"/>
     </g>
     <g id="line2d_58"/>
     <g id="text_18">
      <!-- 25 -->
      <g style="fill:#555555;" transform="translate(36.435 328.60432)scale(0.1 -0.1)">
       <use xlink:href="#DejaVuSans-32"/>
       <use x="63.623047" xlink:href="#DejaVuSans-35"/>
      </g>
     </g>
    </g>
    <g id="ytick_11">
     <g id="line2d_59">
      <path clip-path="url(#p0d07e3e9cc)" d="M 56.16 297.762294 
L 502.56 297.762294 
" style="fill:none;stroke:#ffffff;stroke-linecap:round;"/>
     </g>
     <g id="line2d_60"/>
     <g id="text_19">
      <!-- 50 -->
      <g style="fill:#555555;" transform="translate(36.435 301.561513)scale(0.1 -0.1)">
       <use xlink:href="#DejaVuSans-35"/>
       <use x="63.623047" xlink:href="#DejaVuSans-30"/>
      </g>
     </g>
    </g>
    <g id="ytick_12">
     <g id="line2d_61">
      <path clip-path="url(#p0d07e3e9cc)" d="M 56.16 270.719487 
L 502.56 270.719487 
" style="fill:none;stroke:#ffffff;stroke-linecap:round;"/>
     </g>
     <g id="line2d_62"/>
     <g id="text_20">
      <!-- 75 -->
      <g style="fill:#555555;" transform="translate(36.435 274.518705)scale(0.1 -0.1)">
       <use xlink:href="#DejaVuSans-37"/>
       <use x="63.623047" xlink:href="#DejaVuSans-35"/>
      </g>
     </g>
    </g>
   </g>
   <g id="PolyCollection_3">
    <defs>
     <path d="M 303.53965 -53.925404 
L 303.53965 -54.515038 
L 307.187189 -54.567623 
L 310.834729 -54.584691 
L 314.482268 -54.58074 
L 318.129808 -54.570272 
L 321.777348 -54.567787 
L 325.424887 -54.587784 
L 329.072427 -54.644765 
L 332.719967 -54.753228 
L 336.367506 -54.927676 
L 340.015046 -55.182607 
L 343.662585 -55.532522 
L 347.310125 -55.991922 
L 350.957665 -56.575306 
L 354.605204 -57.287063 
L 358.252744 -58.091132 
L 361.900284 -58.94134 
L 365.547823 -59.791516 
L 369.195363 -60.595486 
L 372.842902 -61.307079 
L 376.490442 -61.88012 
L 380.137982 -62.268439 
L 383.785521 -62.425862 
L 387.433061 -62.306217 
L 391.0806 -61.863332 
L 394.72814 -61.051033 
L 398.37568 -59.99759 
L 402.023219 -59.529035 
L 405.670759 -60.645845 
L 409.318299 -63.662384 
L 412.965838 -66.148582 
L 416.613378 -66.59126 
L 420.260917 -68.607437 
L 423.908457 -72.289902 
L 427.555997 -76.449638 
L 431.203536 -80.032817 
L 434.851076 -82.52637 
L 438.498615 -83.552419 
L 442.146155 -83.52871 
L 445.793695 -85.020797 
L 449.441234 -87.543256 
L 453.088774 -90.699293 
L 456.736314 -94.203575 
L 460.383853 -97.725605 
L 464.031393 -100.418614 
L 467.678932 -99.370732 
L 471.326472 -91.153814 
L 474.974012 -74.90377 
L 478.621551 -60.012715 
L 482.269091 -58.43682 
L 482.269091 -53.925404 
L 482.269091 -53.925404 
L 478.621551 -53.925404 
L 474.974012 -53.925404 
L 471.326472 -53.925404 
L 467.678932 -53.925404 
L 464.031393 -53.925404 
L 460.383853 -53.925404 
L 456.736314 -53.925404 
L 453.088774 -53.925404 
L 449.441234 -53.925404 
L 445.793695 -53.925404 
L 442.146155 -53.925404 
L 438.498615 -53.925404 
L 434.851076 -53.925404 
L 431.203536 -53.925404 
L 427.555997 -53.925404 
L 423.908457 -53.925404 
L 420.260917 -53.925404 
L 416.613378 -53.925404 
L 412.965838 -53.925404 
L 409.318299 -53.925404 
L 405.670759 -53.925404 
L 402.023219 -53.925404 
L 398.37568 -53.925404 
L 394.72814 -53.925404 
L 391.0806 -53.925404 
L 387.433061 -53.925404 
L 383.785521 -53.925404 
L 380.137982 -53.925404 
L 376.490442 -53.925404 
L 372.842902 -53.925404 
L 369.195363 -53.925404 
L 365.547823 -53.925404 
L 361.900284 -53.925404 
L 358.252744 -53.925404 
L 354.605204 -53.925404 
L 350.957665 -53.925404 
L 347.310125 -53.925404 
L 343.662585 -53.925404 
L 340.015046 -53.925404 
L 336.367506 -53.925404 
L 332.719967 -53.925404 
L 329.072427 -53.925404 
L 325.424887 -53.925404 
L 321.777348 -53.925404 
L 318.129808 -53.925404 
L 314.482268 -53.925404 
L 310.834729 -53.925404 
L 307.187189 -53.925404 
L 303.53965 -53.925404 
z
" id="mfdbec95437" style="stroke:#36c738;stroke-opacity:0.5;stroke-width:0.5;"/>
    </defs>
    <g clip-path="url(#p0d07e3e9cc)">
     <use style="fill:#36c738;fill-opacity:0.5;stroke:#36c738;stroke-opacity:0.5;stroke-width:0.5;" x="0" xlink:href="#mfdbec95437" y="405.773312"/>
    </g>
   </g>
   <g id="line2d_63">
    <path clip-path="url(#p0d07e3e9cc)" d="M 303.53965 351.258274 
L 307.187189 351.205689 
L 310.834729 351.188622 
L 314.482268 351.192572 
L 318.129808 351.20304 
L 321.777348 351.205526 
L 325.424887 351.185528 
L 329.072427 351.128548 
L 332.719967 351.020084 
L 336.367506 350.845637 
L 340.015046 350.590705 
L 343.662585 350.24079 
L 347.310125 349.781391 
L 350.957665 349.198006 
L 354.605204 348.48625 
L 358.252744 347.682181 
L 361.900284 346.831972 
L 365.547823 345.981797 
L 369.195363 345.177826 
L 372.842902 344.466234 
L 376.490442 343.893192 
L 380.137982 343.504873 
L 383.785521 343.34745 
L 387.433061 343.467095 
L 391.0806 343.909981 
L 394.72814 344.72228 
L 398.37568 345.775723 
L 402.023219 346.244277 
L 405.670759 345.127468 
L 409.318299 342.110929 
L 412.965838 339.624731 
L 416.613378 339.182052 
L 420.260917 337.165875 
L 423.908457 333.48341 
L 427.555997 329.323674 
L 431.203536 325.740496 
L 434.851076 323.246943 
L 438.498615 322.220893 
L 442.146155 322.244603 
L 445.793695 320.752515 
L 449.441234 318.230056 
L 453.088774 315.07402 
L 456.736314 311.569738 
L 460.383853 308.047707 
L 464.031393 305.354698 
L 467.678932 306.402581 
L 471.326472 314.619499 
L 474.974012 330.869543 
L 478.621551 345.760597 
L 482.269091 347.336493 
" style="fill:none;stroke:#36c738;stroke-linecap:round;stroke-width:1.75;"/>
   </g>
   <g id="patch_13">
    <path d="M 56.16 356.78175 
L 56.16 258.946456 
" style="fill:none;stroke:#ffffff;stroke-linecap:square;stroke-linejoin:miter;"/>
   </g>
   <g id="patch_14">
    <path d="M 502.56 356.78175 
L 502.56 258.946456 
" style="fill:none;stroke:#ffffff;stroke-linecap:square;stroke-linejoin:miter;"/>
   </g>
   <g id="patch_15">
    <path d="M 56.16 356.78175 
L 502.56 356.78175 
" style="fill:none;stroke:#ffffff;stroke-linecap:square;stroke-linejoin:miter;"/>
   </g>
   <g id="patch_16">
    <path d="M 56.16 258.946456 
L 502.56 258.946456 
" style="fill:none;stroke:#ffffff;stroke-linecap:square;stroke-linejoin:miter;"/>
   </g>
   <g id="text_21">
    <!-- Data -->
    <defs>
     <path d="M 27.984375 58.6875 
L 27.984375 14.203125 
L 34.71875 14.203125 
Q 46.234375 14.203125 52.3125 19.921875 
Q 58.40625 25.640625 58.40625 36.53125 
Q 58.40625 47.359375 52.34375 53.015625 
Q 46.296875 58.6875 34.71875 58.6875 
z
M 9.1875 72.90625 
L 29 72.90625 
Q 45.609375 72.90625 53.734375 70.53125 
Q 61.859375 68.171875 67.671875 62.5 
Q 72.796875 57.5625 75.28125 51.109375 
Q 77.78125 44.671875 77.78125 36.53125 
Q 77.78125 28.265625 75.28125 21.796875 
Q 72.796875 15.328125 67.671875 10.40625 
Q 61.8125 4.734375 53.609375 2.359375 
Q 45.40625 0 29 0 
L 9.1875 0 
z
" id="DejaVuSans-Bold-44"/>
    </defs>
    <g style="fill:#36c738;" transform="translate(260.22375 252.946456)scale(0.144 -0.144)">
     <use xlink:href="#DejaVuSans-Bold-44"/>
     <use x="83.007812" xlink:href="#DejaVuSans-Bold-61"/>
     <use x="150.488281" xlink:href="#DejaVuSans-Bold-74"/>
     <use x="198.291016" xlink:href="#DejaVuSans-Bold-61"/>
    </g>
   </g>
  </g>
  <g id="text_22">
   <!-- Proportion -->
   <defs>
    <path d="M 9.1875 72.90625 
L 40.375 72.90625 
Q 54.296875 72.90625 61.734375 66.71875 
Q 69.1875 60.546875 69.1875 49.125 
Q 69.1875 37.640625 61.734375 31.46875 
Q 54.296875 25.296875 40.375 25.296875 
L 27.984375 25.296875 
L 27.984375 0 
L 9.1875 0 
z
M 27.984375 59.28125 
L 27.984375 38.921875 
L 38.375 38.921875 
Q 43.84375 38.921875 46.828125 41.578125 
Q 49.8125 44.234375 49.8125 49.125 
Q 49.8125 54 46.828125 56.640625 
Q 43.84375 59.28125 38.375 59.28125 
z
" id="DejaVuSans-Bold-50"/>
    <path d="M 49.03125 39.796875 
Q 46.734375 40.875 44.453125 41.375 
Q 42.1875 41.890625 39.890625 41.890625 
Q 33.15625 41.890625 29.515625 37.5625 
Q 25.875 33.25 25.875 25.203125 
L 25.875 0 
L 8.40625 0 
L 8.40625 54.6875 
L 25.875 54.6875 
L 25.875 45.703125 
Q 29.25 51.078125 33.609375 53.53125 
Q 37.984375 56 44.09375 56 
Q 44.96875 56 45.984375 55.921875 
Q 47.015625 55.859375 48.96875 55.609375 
z
" id="DejaVuSans-Bold-72"/>
    <path d="M 34.421875 43.5 
Q 28.609375 43.5 25.5625 39.328125 
Q 22.515625 35.15625 22.515625 27.296875 
Q 22.515625 19.4375 25.5625 15.25 
Q 28.609375 11.078125 34.421875 11.078125 
Q 40.140625 11.078125 43.15625 15.25 
Q 46.1875 19.4375 46.1875 27.296875 
Q 46.1875 35.15625 43.15625 39.328125 
Q 40.140625 43.5 34.421875 43.5 
M 34.421875 56 
Q 48.53125 56 56.46875 48.375 
Q 64.40625 40.765625 64.40625 27.296875 
Q 64.40625 13.8125 56.46875 6.1875 
Q 48.53125 -1.421875 34.421875 -1.421875 
Q 20.265625 -1.421875 12.28125 6.1875 
Q 4.296875 13.8125 4.296875 27.296875 
Q 4.296875 40.765625 12.28125 48.375 
Q 20.265625 56 34.421875 56 
" id="DejaVuSans-Bold-6f"/>
   </defs>
   <g style="fill:#808080;" transform="translate(229.95875 395.66175)scale(0.14 -0.14)">
    <use xlink:href="#DejaVuSans-Bold-50"/>
    <use x="73.291016" xlink:href="#DejaVuSans-Bold-72"/>
    <use x="122.607422" xlink:href="#DejaVuSans-Bold-6f"/>
    <use x="191.308594" xlink:href="#DejaVuSans-Bold-70"/>
    <use x="262.890625" xlink:href="#DejaVuSans-Bold-6f"/>
    <use x="331.591797" xlink:href="#DejaVuSans-Bold-72"/>
    <use x="380.908203" xlink:href="#DejaVuSans-Bold-74"/>
    <use x="428.710938" xlink:href="#DejaVuSans-Bold-69"/>
    <use x="462.988281" xlink:href="#DejaVuSans-Bold-6f"/>
    <use x="531.689453" xlink:href="#DejaVuSans-Bold-6e"/>
   </g>
  </g>
  <g id="text_23">
   <!-- Number of genes -->
   <defs>
    <path d="M 9.1875 72.90625 
L 30.171875 72.90625 
L 56.6875 22.90625 
L 56.6875 72.90625 
L 74.515625 72.90625 
L 74.515625 0 
L 53.515625 0 
L 27 50 
L 27 0 
L 9.1875 0 
z
" id="DejaVuSans-Bold-4e"/>
    <path d="M 7.8125 21.296875 
L 7.8125 54.6875 
L 25.390625 54.6875 
L 25.390625 49.21875 
Q 25.390625 44.78125 25.34375 38.0625 
Q 25.296875 31.34375 25.296875 29.109375 
Q 25.296875 22.515625 25.640625 19.609375 
Q 25.984375 16.703125 26.8125 15.375 
Q 27.875 13.671875 29.609375 12.734375 
Q 31.34375 11.8125 33.59375 11.8125 
Q 39.0625 11.8125 42.1875 16.015625 
Q 45.3125 20.21875 45.3125 27.6875 
L 45.3125 54.6875 
L 62.796875 54.6875 
L 62.796875 0 
L 45.3125 0 
L 45.3125 7.90625 
Q 41.359375 3.125 36.9375 0.84375 
Q 32.515625 -1.421875 27.203125 -1.421875 
Q 17.71875 -1.421875 12.765625 4.390625 
Q 7.8125 10.203125 7.8125 21.296875 
" id="DejaVuSans-Bold-75"/>
    <path d="M 59.078125 45.609375 
Q 62.40625 50.6875 66.96875 53.34375 
Q 71.53125 56 77 56 
Q 86.421875 56 91.359375 50.1875 
Q 96.296875 44.390625 96.296875 33.296875 
L 96.296875 0 
L 78.71875 0 
L 78.71875 28.515625 
Q 78.765625 29.15625 78.78125 29.828125 
Q 78.8125 30.515625 78.8125 31.78125 
Q 78.8125 37.59375 77.09375 40.203125 
Q 75.390625 42.828125 71.578125 42.828125 
Q 66.609375 42.828125 63.890625 38.71875 
Q 61.1875 34.625 61.078125 26.859375 
L 61.078125 0 
L 43.5 0 
L 43.5 28.515625 
Q 43.5 37.59375 41.9375 40.203125 
Q 40.375 42.828125 36.375 42.828125 
Q 31.34375 42.828125 28.609375 38.703125 
Q 25.875 34.578125 25.875 26.90625 
L 25.875 0 
L 8.296875 0 
L 8.296875 54.6875 
L 25.875 54.6875 
L 25.875 46.6875 
Q 29.109375 51.3125 33.28125 53.65625 
Q 37.453125 56 42.484375 56 
Q 48.140625 56 52.484375 53.265625 
Q 56.84375 50.53125 59.078125 45.609375 
" id="DejaVuSans-Bold-6d"/>
    <path d="M 37.5 11.28125 
Q 43.109375 11.28125 46.0625 15.375 
Q 49.03125 19.484375 49.03125 27.296875 
Q 49.03125 35.109375 46.0625 39.203125 
Q 43.109375 43.3125 37.5 43.3125 
Q 31.890625 43.3125 28.875 39.1875 
Q 25.875 35.0625 25.875 27.296875 
Q 25.875 19.53125 28.875 15.40625 
Q 31.890625 11.28125 37.5 11.28125 
M 25.875 46.6875 
Q 29.5 51.46875 33.890625 53.734375 
Q 38.28125 56 44 56 
Q 54.109375 56 60.59375 47.96875 
Q 67.09375 39.9375 67.09375 27.296875 
Q 67.09375 14.65625 60.59375 6.609375 
Q 54.109375 -1.421875 44 -1.421875 
Q 38.28125 -1.421875 33.890625 0.84375 
Q 29.5 3.125 25.875 7.90625 
L 25.875 0 
L 8.40625 0 
L 8.40625 75.984375 
L 25.875 75.984375 
z
" id="DejaVuSans-Bold-62"/>
    <path d="M 62.984375 27.484375 
L 62.984375 22.515625 
L 22.125 22.515625 
Q 22.75 16.359375 26.5625 13.28125 
Q 30.375 10.203125 37.203125 10.203125 
Q 42.71875 10.203125 48.5 11.84375 
Q 54.296875 13.484375 60.40625 16.796875 
L 60.40625 3.328125 
Q 54.203125 0.984375 48 -0.21875 
Q 41.796875 -1.421875 35.59375 -1.421875 
Q 20.75 -1.421875 12.515625 6.125 
Q 4.296875 13.671875 4.296875 27.296875 
Q 4.296875 40.671875 12.375 48.328125 
Q 20.453125 56 34.625 56 
Q 47.515625 56 55.25 48.234375 
Q 62.984375 40.484375 62.984375 27.484375 
M 45.015625 33.296875 
Q 45.015625 38.28125 42.109375 41.328125 
Q 39.203125 44.390625 34.515625 44.390625 
Q 29.4375 44.390625 26.265625 41.53125 
Q 23.09375 38.671875 22.3125 33.296875 
z
" id="DejaVuSans-Bold-65"/>
    <path d="M 44.390625 75.984375 
L 44.390625 64.5 
L 34.71875 64.5 
Q 31 64.5 29.53125 63.15625 
Q 28.078125 61.8125 28.078125 58.5 
L 28.078125 54.6875 
L 43.015625 54.6875 
L 43.015625 42.1875 
L 28.078125 42.1875 
L 28.078125 0 
L 10.59375 0 
L 10.59375 42.1875 
L 1.90625 42.1875 
L 1.90625 54.6875 
L 10.59375 54.6875 
L 10.59375 58.5 
Q 10.59375 67.4375 15.578125 71.703125 
Q 20.5625 75.984375 31 75.984375 
z
" id="DejaVuSans-Bold-66"/>
   </defs>
   <g style="fill:#808080;" transform="translate(17.837813 256.031125)rotate(-90)scale(0.14 -0.14)">
    <use xlink:href="#DejaVuSans-Bold-4e"/>
    <use x="83.691406" xlink:href="#DejaVuSans-Bold-75"/>
    <use x="154.882812" xlink:href="#DejaVuSans-Bold-6d"/>
    <use x="259.082031" xlink:href="#DejaVuSans-Bold-62"/>
    <use x="330.664062" xlink:href="#DejaVuSans-Bold-65"/>
    <use x="398.486328" xlink:href="#DejaVuSans-Bold-72"/>
    <use x="447.802734" xlink:href="#DejaVuSans-Bold-20"/>
    <use x="482.617188" xlink:href="#DejaVuSans-Bold-6f"/>
    <use x="551.318359" xlink:href="#DejaVuSans-Bold-66"/>
    <use x="594.824219" xlink:href="#DejaVuSans-Bold-20"/>
    <use x="629.638672" xlink:href="#DejaVuSans-Bold-67"/>
    <use x="701.220703" xlink:href="#DejaVuSans-Bold-65"/>
    <use x="769.042969" xlink:href="#DejaVuSans-Bold-6e"/>
    <use x="840.234375" xlink:href="#DejaVuSans-Bold-65"/>
    <use x="908.056641" xlink:href="#DejaVuSans-Bold-73"/>
   </g>
  </g>
 </g>
 <defs>
  <clipPath id="p44797ddded">
   <rect height="97.835294" width="446.4" x="56.16" y="24.14175"/>
  </clipPath>
  <clipPath id="pb94c499c77">
   <rect height="97.835294" width="446.4" x="56.16" y="141.544103"/>
  </clipPath>
  <clipPath id="p0d07e3e9cc">
   <rect height="97.835294" width="446.4" x="56.16" y="258.946456"/>
  </clipPath>
 </defs>
</svg>
