<?xml version="1.0" encoding="utf-8" standalone="no"?>
<!DOCTYPE svg PUBLIC "-//W3C//DTD SVG 1.1//EN"
  "http://www.w3.org/Graphics/SVG/1.1/DTD/svg11.dtd">
<!-- Created with matplotlib (http://matplotlib.org/) -->
<svg height="489pt" version="1.1" viewBox="0 0 572 489" width="572pt" xmlns="http://www.w3.org/2000/svg" xmlns:xlink="http://www.w3.org/1999/xlink">
 <defs>
  <style type="text/css">
*{stroke-linecap:butt;stroke-linejoin:round;}
  </style>
 </defs>
 <g id="figure_1">
  <g id="patch_1">
   <path d="M 0 489.587223 
L 572.2525 489.587223 
L 572.2525 0 
L 0 0 
z
" style="fill:#ffffff;"/>
  </g>
  <g id="axes_1">
   <g id="patch_2">
    <path d="M 58.6525 373.109813 
L 505.0525 373.109813 
L 505.0525 40.469812 
L 58.6525 40.469812 
z
" style="fill:#e5e5e5;"/>
   </g>
   <g id="matplotlib.axis_1">
    <g id="xtick_1">
     <g id="line2d_1">
      <path clip-path="url(#pff6b34ea2c)" d="M 92.584356 373.109813 
L 92.584356 40.469812 
" style="fill:none;stroke:#ffffff;stroke-linecap:round;"/>
     </g>
     <g id="line2d_2"/>
     <g id="text_1">
      <!-- 999_RAD_original -->
      <defs>
       <path d="M 10.984375 1.515625 
L 10.984375 10.5 
Q 14.703125 8.734375 18.5 7.8125 
Q 22.3125 6.890625 25.984375 6.890625 
Q 35.75 6.890625 40.890625 13.453125 
Q 46.046875 20.015625 46.78125 33.40625 
Q 43.953125 29.203125 39.59375 26.953125 
Q 35.25 24.703125 29.984375 24.703125 
Q 19.046875 24.703125 12.671875 31.3125 
Q 6.296875 37.9375 6.296875 49.421875 
Q 6.296875 60.640625 12.9375 67.421875 
Q 19.578125 74.21875 30.609375 74.21875 
Q 43.265625 74.21875 49.921875 64.515625 
Q 56.59375 54.828125 56.59375 36.375 
Q 56.59375 19.140625 48.40625 8.859375 
Q 40.234375 -1.421875 26.421875 -1.421875 
Q 22.703125 -1.421875 18.890625 -0.6875 
Q 15.09375 0.046875 10.984375 1.515625 
M 30.609375 32.421875 
Q 37.25 32.421875 41.125 36.953125 
Q 45.015625 41.5 45.015625 49.421875 
Q 45.015625 57.28125 41.125 61.84375 
Q 37.25 66.40625 30.609375 66.40625 
Q 23.96875 66.40625 20.09375 61.84375 
Q 16.21875 57.28125 16.21875 49.421875 
Q 16.21875 41.5 20.09375 36.953125 
Q 23.96875 32.421875 30.609375 32.421875 
" id="DejaVuSans-39"/>
       <path d="M 50.984375 -16.609375 
L 50.984375 -23.578125 
L -0.984375 -23.578125 
L -0.984375 -16.609375 
z
" id="DejaVuSans-5f"/>
       <path d="M 44.390625 34.1875 
Q 47.5625 33.109375 50.5625 29.59375 
Q 53.5625 26.078125 56.59375 19.921875 
L 66.609375 0 
L 56 0 
L 46.6875 18.703125 
Q 43.0625 26.03125 39.671875 28.421875 
Q 36.28125 30.8125 30.421875 30.8125 
L 19.671875 30.8125 
L 19.671875 0 
L 9.8125 0 
L 9.8125 72.90625 
L 32.078125 72.90625 
Q 44.578125 72.90625 50.734375 67.671875 
Q 56.890625 62.453125 56.890625 51.90625 
Q 56.890625 45.015625 53.6875 40.46875 
Q 50.484375 35.9375 44.390625 34.1875 
M 19.671875 64.796875 
L 19.671875 38.921875 
L 32.078125 38.921875 
Q 39.203125 38.921875 42.84375 42.21875 
Q 46.484375 45.515625 46.484375 51.90625 
Q 46.484375 58.296875 42.84375 61.546875 
Q 39.203125 64.796875 32.078125 64.796875 
z
" id="DejaVuSans-52"/>
       <path d="M 34.1875 63.1875 
L 20.796875 26.90625 
L 47.609375 26.90625 
z
M 28.609375 72.90625 
L 39.796875 72.90625 
L 67.578125 0 
L 57.328125 0 
L 50.6875 18.703125 
L 17.828125 18.703125 
L 11.1875 0 
L 0.78125 0 
z
" id="DejaVuSans-41"/>
       <path d="M 19.671875 64.796875 
L 19.671875 8.109375 
L 31.59375 8.109375 
Q 46.6875 8.109375 53.6875 14.9375 
Q 60.6875 21.78125 60.6875 36.53125 
Q 60.6875 51.171875 53.6875 57.984375 
Q 46.6875 64.796875 31.59375 64.796875 
z
M 9.8125 72.90625 
L 30.078125 72.90625 
Q 51.265625 72.90625 61.171875 64.09375 
Q 71.09375 55.28125 71.09375 36.53125 
Q 71.09375 17.671875 61.125 8.828125 
Q 51.171875 0 30.078125 0 
L 9.8125 0 
z
" id="DejaVuSans-44"/>
       <path d="M 30.609375 48.390625 
Q 23.390625 48.390625 19.1875 42.75 
Q 14.984375 37.109375 14.984375 27.296875 
Q 14.984375 17.484375 19.15625 11.84375 
Q 23.34375 6.203125 30.609375 6.203125 
Q 37.796875 6.203125 41.984375 11.859375 
Q 46.1875 17.53125 46.1875 27.296875 
Q 46.1875 37.015625 41.984375 42.703125 
Q 37.796875 48.390625 30.609375 48.390625 
M 30.609375 56 
Q 42.328125 56 49.015625 48.375 
Q 55.71875 40.765625 55.71875 27.296875 
Q 55.71875 13.875 49.015625 6.21875 
Q 42.328125 -1.421875 30.609375 -1.421875 
Q 18.84375 -1.421875 12.171875 6.21875 
Q 5.515625 13.875 5.515625 27.296875 
Q 5.515625 40.765625 12.171875 48.375 
Q 18.84375 56 30.609375 56 
" id="DejaVuSans-6f"/>
       <path d="M 41.109375 46.296875 
Q 39.59375 47.171875 37.8125 47.578125 
Q 36.03125 48 33.890625 48 
Q 26.265625 48 22.1875 43.046875 
Q 18.109375 38.09375 18.109375 28.8125 
L 18.109375 0 
L 9.078125 0 
L 9.078125 54.6875 
L 18.109375 54.6875 
L 18.109375 46.1875 
Q 20.953125 51.171875 25.484375 53.578125 
Q 30.03125 56 36.53125 56 
Q 37.453125 56 38.578125 55.875 
Q 39.703125 55.765625 41.0625 55.515625 
z
" id="DejaVuSans-72"/>
       <path d="M 9.421875 54.6875 
L 18.40625 54.6875 
L 18.40625 0 
L 9.421875 0 
z
M 9.421875 75.984375 
L 18.40625 75.984375 
L 18.40625 64.59375 
L 9.421875 64.59375 
z
" id="DejaVuSans-69"/>
       <path d="M 45.40625 27.984375 
Q 45.40625 37.75 41.375 43.109375 
Q 37.359375 48.484375 30.078125 48.484375 
Q 22.859375 48.484375 18.828125 43.109375 
Q 14.796875 37.75 14.796875 27.984375 
Q 14.796875 18.265625 18.828125 12.890625 
Q 22.859375 7.515625 30.078125 7.515625 
Q 37.359375 7.515625 41.375 12.890625 
Q 45.40625 18.265625 45.40625 27.984375 
M 54.390625 6.78125 
Q 54.390625 -7.171875 48.1875 -13.984375 
Q 42 -20.796875 29.203125 -20.796875 
Q 24.46875 -20.796875 20.265625 -20.09375 
Q 16.0625 -19.390625 12.109375 -17.921875 
L 12.109375 -9.1875 
Q 16.0625 -11.328125 19.921875 -12.34375 
Q 23.78125 -13.375 27.78125 -13.375 
Q 36.625 -13.375 41.015625 -8.765625 
Q 45.40625 -4.15625 45.40625 5.171875 
L 45.40625 9.625 
Q 42.625 4.78125 38.28125 2.390625 
Q 33.9375 0 27.875 0 
Q 17.828125 0 11.671875 7.65625 
Q 5.515625 15.328125 5.515625 27.984375 
Q 5.515625 40.671875 11.671875 48.328125 
Q 17.828125 56 27.875 56 
Q 33.9375 56 38.28125 53.609375 
Q 42.625 51.21875 45.40625 46.390625 
L 45.40625 54.6875 
L 54.390625 54.6875 
z
" id="DejaVuSans-67"/>
       <path d="M 54.890625 33.015625 
L 54.890625 0 
L 45.90625 0 
L 45.90625 32.71875 
Q 45.90625 40.484375 42.875 44.328125 
Q 39.84375 48.1875 33.796875 48.1875 
Q 26.515625 48.1875 22.3125 43.546875 
Q 18.109375 38.921875 18.109375 30.90625 
L 18.109375 0 
L 9.078125 0 
L 9.078125 54.6875 
L 18.109375 54.6875 
L 18.109375 46.1875 
Q 21.34375 51.125 25.703125 53.5625 
Q 30.078125 56 35.796875 56 
Q 45.21875 56 50.046875 50.171875 
Q 54.890625 44.34375 54.890625 33.015625 
" id="DejaVuSans-6e"/>
       <path d="M 34.28125 27.484375 
Q 23.390625 27.484375 19.1875 25 
Q 14.984375 22.515625 14.984375 16.5 
Q 14.984375 11.71875 18.140625 8.90625 
Q 21.296875 6.109375 26.703125 6.109375 
Q 34.1875 6.109375 38.703125 11.40625 
Q 43.21875 16.703125 43.21875 25.484375 
L 43.21875 27.484375 
z
M 52.203125 31.203125 
L 52.203125 0 
L 43.21875 0 
L 43.21875 8.296875 
Q 40.140625 3.328125 35.546875 0.953125 
Q 30.953125 -1.421875 24.3125 -1.421875 
Q 15.921875 -1.421875 10.953125 3.296875 
Q 6 8.015625 6 15.921875 
Q 6 25.140625 12.171875 29.828125 
Q 18.359375 34.515625 30.609375 34.515625 
L 43.21875 34.515625 
L 43.21875 35.40625 
Q 43.21875 41.609375 39.140625 45 
Q 35.0625 48.390625 27.6875 48.390625 
Q 23 48.390625 18.546875 47.265625 
Q 14.109375 46.140625 10.015625 43.890625 
L 10.015625 52.203125 
Q 14.9375 54.109375 19.578125 55.046875 
Q 24.21875 56 28.609375 56 
Q 40.484375 56 46.34375 49.84375 
Q 52.203125 43.703125 52.203125 31.203125 
" id="DejaVuSans-61"/>
       <path d="M 9.421875 75.984375 
L 18.40625 75.984375 
L 18.40625 0 
L 9.421875 0 
z
" id="DejaVuSans-6c"/>
      </defs>
      <g style="fill:#555555;" transform="translate(28.728195 447.671656)rotate(-45)scale(0.1 -0.1)">
       <use xlink:href="#DejaVuSans-39"/>
       <use x="63.623047" xlink:href="#DejaVuSans-39"/>
       <use x="127.246094" xlink:href="#DejaVuSans-39"/>
       <use x="190.869141" xlink:href="#DejaVuSans-5f"/>
       <use x="240.869141" xlink:href="#DejaVuSans-52"/>
       <use x="310.289062" xlink:href="#DejaVuSans-41"/>
       <use x="378.697266" xlink:href="#DejaVuSans-44"/>
       <use x="455.699219" xlink:href="#DejaVuSans-5f"/>
       <use x="505.699219" xlink:href="#DejaVuSans-6f"/>
       <use x="566.880859" xlink:href="#DejaVuSans-72"/>
       <use x="607.994141" xlink:href="#DejaVuSans-69"/>
       <use x="635.777344" xlink:href="#DejaVuSans-67"/>
       <use x="699.253906" xlink:href="#DejaVuSans-69"/>
       <use x="727.037109" xlink:href="#DejaVuSans-6e"/>
       <use x="790.416016" xlink:href="#DejaVuSans-61"/>
       <use x="851.695312" xlink:href="#DejaVuSans-6c"/>
      </g>
     </g>
    </g>
    <g id="xtick_2">
     <g id="line2d_3">
      <path clip-path="url(#pff6b34ea2c)" d="M 109.63554 373.109813 
L 109.63554 40.469812 
" style="fill:none;stroke:#ffffff;stroke-linecap:round;"/>
     </g>
     <g id="line2d_4"/>
     <g id="text_2">
      <!-- 3305_RAD_original -->
      <defs>
       <path d="M 40.578125 39.3125 
Q 47.65625 37.796875 51.625 33 
Q 55.609375 28.21875 55.609375 21.1875 
Q 55.609375 10.40625 48.1875 4.484375 
Q 40.765625 -1.421875 27.09375 -1.421875 
Q 22.515625 -1.421875 17.65625 -0.515625 
Q 12.796875 0.390625 7.625 2.203125 
L 7.625 11.71875 
Q 11.71875 9.328125 16.59375 8.109375 
Q 21.484375 6.890625 26.8125 6.890625 
Q 36.078125 6.890625 40.9375 10.546875 
Q 45.796875 14.203125 45.796875 21.1875 
Q 45.796875 27.640625 41.28125 31.265625 
Q 36.765625 34.90625 28.71875 34.90625 
L 20.21875 34.90625 
L 20.21875 43.015625 
L 29.109375 43.015625 
Q 36.375 43.015625 40.234375 45.921875 
Q 44.09375 48.828125 44.09375 54.296875 
Q 44.09375 59.90625 40.109375 62.90625 
Q 36.140625 65.921875 28.71875 65.921875 
Q 24.65625 65.921875 20.015625 65.03125 
Q 15.375 64.15625 9.8125 62.3125 
L 9.8125 71.09375 
Q 15.4375 72.65625 20.34375 73.4375 
Q 25.25 74.21875 29.59375 74.21875 
Q 40.828125 74.21875 47.359375 69.109375 
Q 53.90625 64.015625 53.90625 55.328125 
Q 53.90625 49.265625 50.4375 45.09375 
Q 46.96875 40.921875 40.578125 39.3125 
" id="DejaVuSans-33"/>
       <path d="M 31.78125 66.40625 
Q 24.171875 66.40625 20.328125 58.90625 
Q 16.5 51.421875 16.5 36.375 
Q 16.5 21.390625 20.328125 13.890625 
Q 24.171875 6.390625 31.78125 6.390625 
Q 39.453125 6.390625 43.28125 13.890625 
Q 47.125 21.390625 47.125 36.375 
Q 47.125 51.421875 43.28125 58.90625 
Q 39.453125 66.40625 31.78125 66.40625 
M 31.78125 74.21875 
Q 44.046875 74.21875 50.515625 64.515625 
Q 56.984375 54.828125 56.984375 36.375 
Q 56.984375 17.96875 50.515625 8.265625 
Q 44.046875 -1.421875 31.78125 -1.421875 
Q 19.53125 -1.421875 13.0625 8.265625 
Q 6.59375 17.96875 6.59375 36.375 
Q 6.59375 54.828125 13.0625 64.515625 
Q 19.53125 74.21875 31.78125 74.21875 
" id="DejaVuSans-30"/>
       <path d="M 10.796875 72.90625 
L 49.515625 72.90625 
L 49.515625 64.59375 
L 19.828125 64.59375 
L 19.828125 46.734375 
Q 21.96875 47.46875 24.109375 47.828125 
Q 26.265625 48.1875 28.421875 48.1875 
Q 40.625 48.1875 47.75 41.5 
Q 54.890625 34.8125 54.890625 23.390625 
Q 54.890625 11.625 47.5625 5.09375 
Q 40.234375 -1.421875 26.90625 -1.421875 
Q 22.3125 -1.421875 17.546875 -0.640625 
Q 12.796875 0.140625 7.71875 1.703125 
L 7.71875 11.625 
Q 12.109375 9.234375 16.796875 8.0625 
Q 21.484375 6.890625 26.703125 6.890625 
Q 35.15625 6.890625 40.078125 11.328125 
Q 45.015625 15.765625 45.015625 23.390625 
Q 45.015625 31 40.078125 35.4375 
Q 35.15625 39.890625 26.703125 39.890625 
Q 22.75 39.890625 18.8125 39.015625 
Q 14.890625 38.140625 10.796875 36.28125 
z
" id="DejaVuSans-35"/>
      </defs>
      <g style="fill:#555555;" transform="translate(41.280412 452.170623)rotate(-45)scale(0.1 -0.1)">
       <use xlink:href="#DejaVuSans-33"/>
       <use x="63.623047" xlink:href="#DejaVuSans-33"/>
       <use x="127.246094" xlink:href="#DejaVuSans-30"/>
       <use x="190.869141" xlink:href="#DejaVuSans-35"/>
       <use x="254.492188" xlink:href="#DejaVuSans-5f"/>
       <use x="304.492188" xlink:href="#DejaVuSans-52"/>
       <use x="373.912109" xlink:href="#DejaVuSans-41"/>
       <use x="442.320312" xlink:href="#DejaVuSans-44"/>
       <use x="519.322266" xlink:href="#DejaVuSans-5f"/>
       <use x="569.322266" xlink:href="#DejaVuSans-6f"/>
       <use x="630.503906" xlink:href="#DejaVuSans-72"/>
       <use x="671.617188" xlink:href="#DejaVuSans-69"/>
       <use x="699.400391" xlink:href="#DejaVuSans-67"/>
       <use x="762.876953" xlink:href="#DejaVuSans-69"/>
       <use x="790.660156" xlink:href="#DejaVuSans-6e"/>
       <use x="854.039062" xlink:href="#DejaVuSans-61"/>
       <use x="915.318359" xlink:href="#DejaVuSans-6c"/>
      </g>
     </g>
    </g>
    <g id="xtick_3">
     <g id="line2d_5">
      <path clip-path="url(#pff6b34ea2c)" d="M 126.686725 373.109813 
L 126.686725 40.469812 
" style="fill:none;stroke:#ffffff;stroke-linecap:round;"/>
     </g>
     <g id="line2d_6"/>
     <g id="text_3">
      <!-- 3536_RAD_original -->
      <defs>
       <path d="M 33.015625 40.375 
Q 26.375 40.375 22.484375 35.828125 
Q 18.609375 31.296875 18.609375 23.390625 
Q 18.609375 15.53125 22.484375 10.953125 
Q 26.375 6.390625 33.015625 6.390625 
Q 39.65625 6.390625 43.53125 10.953125 
Q 47.40625 15.53125 47.40625 23.390625 
Q 47.40625 31.296875 43.53125 35.828125 
Q 39.65625 40.375 33.015625 40.375 
M 52.59375 71.296875 
L 52.59375 62.3125 
Q 48.875 64.0625 45.09375 64.984375 
Q 41.3125 65.921875 37.59375 65.921875 
Q 27.828125 65.921875 22.671875 59.328125 
Q 17.53125 52.734375 16.796875 39.40625 
Q 19.671875 43.65625 24.015625 45.921875 
Q 28.375 48.1875 33.59375 48.1875 
Q 44.578125 48.1875 50.953125 41.515625 
Q 57.328125 34.859375 57.328125 23.390625 
Q 57.328125 12.15625 50.6875 5.359375 
Q 44.046875 -1.421875 33.015625 -1.421875 
Q 20.359375 -1.421875 13.671875 8.265625 
Q 6.984375 17.96875 6.984375 36.375 
Q 6.984375 53.65625 15.1875 63.9375 
Q 23.390625 74.21875 37.203125 74.21875 
Q 40.921875 74.21875 44.703125 73.484375 
Q 48.484375 72.75 52.59375 71.296875 
" id="DejaVuSans-36"/>
      </defs>
      <g style="fill:#555555;" transform="translate(58.331596 452.170623)rotate(-45)scale(0.1 -0.1)">
       <use xlink:href="#DejaVuSans-33"/>
       <use x="63.623047" xlink:href="#DejaVuSans-35"/>
       <use x="127.246094" xlink:href="#DejaVuSans-33"/>
       <use x="190.869141" xlink:href="#DejaVuSans-36"/>
       <use x="254.492188" xlink:href="#DejaVuSans-5f"/>
       <use x="304.492188" xlink:href="#DejaVuSans-52"/>
       <use x="373.912109" xlink:href="#DejaVuSans-41"/>
       <use x="442.320312" xlink:href="#DejaVuSans-44"/>
       <use x="519.322266" xlink:href="#DejaVuSans-5f"/>
       <use x="569.322266" xlink:href="#DejaVuSans-6f"/>
       <use x="630.503906" xlink:href="#DejaVuSans-72"/>
       <use x="671.617188" xlink:href="#DejaVuSans-69"/>
       <use x="699.400391" xlink:href="#DejaVuSans-67"/>
       <use x="762.876953" xlink:href="#DejaVuSans-69"/>
       <use x="790.660156" xlink:href="#DejaVuSans-6e"/>
       <use x="854.039062" xlink:href="#DejaVuSans-61"/>
       <use x="915.318359" xlink:href="#DejaVuSans-6c"/>
      </g>
     </g>
    </g>
    <g id="xtick_4">
     <g id="line2d_7">
      <path clip-path="url(#pff6b34ea2c)" d="M 143.737909 373.109813 
L 143.737909 40.469812 
" style="fill:none;stroke:#ffffff;stroke-linecap:round;"/>
     </g>
     <g id="line2d_8"/>
     <g id="text_4">
      <!-- spa -->
      <defs>
       <path d="M 44.28125 53.078125 
L 44.28125 44.578125 
Q 40.484375 46.53125 36.375 47.5 
Q 32.28125 48.484375 27.875 48.484375 
Q 21.1875 48.484375 17.84375 46.4375 
Q 14.5 44.390625 14.5 40.28125 
Q 14.5 37.15625 16.890625 35.375 
Q 19.28125 33.59375 26.515625 31.984375 
L 29.59375 31.296875 
Q 39.15625 29.25 43.1875 25.515625 
Q 47.21875 21.78125 47.21875 15.09375 
Q 47.21875 7.46875 41.1875 3.015625 
Q 35.15625 -1.421875 24.609375 -1.421875 
Q 20.21875 -1.421875 15.453125 -0.5625 
Q 10.6875 0.296875 5.421875 2 
L 5.421875 11.28125 
Q 10.40625 8.6875 15.234375 7.390625 
Q 20.0625 6.109375 24.8125 6.109375 
Q 31.15625 6.109375 34.5625 8.28125 
Q 37.984375 10.453125 37.984375 14.40625 
Q 37.984375 18.0625 35.515625 20.015625 
Q 33.0625 21.96875 24.703125 23.78125 
L 21.578125 24.515625 
Q 13.234375 26.265625 9.515625 29.90625 
Q 5.8125 33.546875 5.8125 39.890625 
Q 5.8125 47.609375 11.28125 51.796875 
Q 16.75 56 26.8125 56 
Q 31.78125 56 36.171875 55.265625 
Q 40.578125 54.546875 44.28125 53.078125 
" id="DejaVuSans-73"/>
       <path d="M 18.109375 8.203125 
L 18.109375 -20.796875 
L 9.078125 -20.796875 
L 9.078125 54.6875 
L 18.109375 54.6875 
L 18.109375 46.390625 
Q 20.953125 51.265625 25.265625 53.625 
Q 29.59375 56 35.59375 56 
Q 45.5625 56 51.78125 48.09375 
Q 58.015625 40.1875 58.015625 27.296875 
Q 58.015625 14.40625 51.78125 6.484375 
Q 45.5625 -1.421875 35.59375 -1.421875 
Q 29.59375 -1.421875 25.265625 0.953125 
Q 20.953125 3.328125 18.109375 8.203125 
M 48.6875 27.296875 
Q 48.6875 37.203125 44.609375 42.84375 
Q 40.53125 48.484375 33.40625 48.484375 
Q 26.265625 48.484375 22.1875 42.84375 
Q 18.109375 37.203125 18.109375 27.296875 
Q 18.109375 17.390625 22.1875 11.75 
Q 26.265625 6.109375 33.40625 6.109375 
Q 40.53125 6.109375 44.609375 11.75 
Q 48.6875 17.390625 48.6875 27.296875 
" id="DejaVuSans-70"/>
      </defs>
      <g style="fill:#555555;" transform="translate(129.761501 397.988566)rotate(-45)scale(0.1 -0.1)">
       <use xlink:href="#DejaVuSans-73"/>
       <use x="52.099609" xlink:href="#DejaVuSans-70"/>
       <use x="115.576172" xlink:href="#DejaVuSans-61"/>
      </g>
     </g>
    </g>
    <g id="xtick_5">
     <g id="line2d_9">
      <path clip-path="url(#pff6b34ea2c)" d="M 160.789093 373.109813 
L 160.789093 40.469812 
" style="fill:none;stroke:#ffffff;stroke-linecap:round;"/>
     </g>
     <g id="line2d_10"/>
     <g id="text_5">
      <!-- spb -->
      <defs>
       <path d="M 48.6875 27.296875 
Q 48.6875 37.203125 44.609375 42.84375 
Q 40.53125 48.484375 33.40625 48.484375 
Q 26.265625 48.484375 22.1875 42.84375 
Q 18.109375 37.203125 18.109375 27.296875 
Q 18.109375 17.390625 22.1875 11.75 
Q 26.265625 6.109375 33.40625 6.109375 
Q 40.53125 6.109375 44.609375 11.75 
Q 48.6875 17.390625 48.6875 27.296875 
M 18.109375 46.390625 
Q 20.953125 51.265625 25.265625 53.625 
Q 29.59375 56 35.59375 56 
Q 45.5625 56 51.78125 48.09375 
Q 58.015625 40.1875 58.015625 27.296875 
Q 58.015625 14.40625 51.78125 6.484375 
Q 45.5625 -1.421875 35.59375 -1.421875 
Q 29.59375 -1.421875 25.265625 0.953125 
Q 20.953125 3.328125 18.109375 8.203125 
L 18.109375 0 
L 9.078125 0 
L 9.078125 75.984375 
L 18.109375 75.984375 
z
" id="DejaVuSans-62"/>
      </defs>
      <g style="fill:#555555;" transform="translate(146.656901 398.14435)rotate(-45)scale(0.1 -0.1)">
       <use xlink:href="#DejaVuSans-73"/>
       <use x="52.099609" xlink:href="#DejaVuSans-70"/>
       <use x="115.576172" xlink:href="#DejaVuSans-62"/>
      </g>
     </g>
    </g>
    <g id="xtick_6">
     <g id="line2d_11">
      <path clip-path="url(#pff6b34ea2c)" d="M 177.840277 373.109813 
L 177.840277 40.469812 
" style="fill:none;stroke:#ffffff;stroke-linecap:round;"/>
     </g>
     <g id="line2d_12"/>
     <g id="text_6">
      <!-- spc -->
      <defs>
       <path d="M 48.78125 52.59375 
L 48.78125 44.1875 
Q 44.96875 46.296875 41.140625 47.34375 
Q 37.3125 48.390625 33.40625 48.390625 
Q 24.65625 48.390625 19.8125 42.84375 
Q 14.984375 37.3125 14.984375 27.296875 
Q 14.984375 17.28125 19.8125 11.734375 
Q 24.65625 6.203125 33.40625 6.203125 
Q 37.3125 6.203125 41.140625 7.25 
Q 44.96875 8.296875 48.78125 10.40625 
L 48.78125 2.09375 
Q 45.015625 0.34375 40.984375 -0.53125 
Q 36.96875 -1.421875 32.421875 -1.421875 
Q 20.0625 -1.421875 12.78125 6.34375 
Q 5.515625 14.109375 5.515625 27.296875 
Q 5.515625 40.671875 12.859375 48.328125 
Q 20.21875 56 33.015625 56 
Q 37.15625 56 41.109375 55.140625 
Q 45.0625 54.296875 48.78125 52.59375 
" id="DejaVuSans-63"/>
      </defs>
      <g style="fill:#555555;" transform="translate(164.309126 397.543309)rotate(-45)scale(0.1 -0.1)">
       <use xlink:href="#DejaVuSans-73"/>
       <use x="52.099609" xlink:href="#DejaVuSans-70"/>
       <use x="115.576172" xlink:href="#DejaVuSans-63"/>
      </g>
     </g>
    </g>
    <g id="xtick_7">
     <g id="line2d_13">
      <path clip-path="url(#pff6b34ea2c)" d="M 194.891461 373.109813 
L 194.891461 40.469812 
" style="fill:none;stroke:#ffffff;stroke-linecap:round;"/>
     </g>
     <g id="line2d_14"/>
     <g id="text_7">
      <!-- spd -->
      <defs>
       <path d="M 45.40625 46.390625 
L 45.40625 75.984375 
L 54.390625 75.984375 
L 54.390625 0 
L 45.40625 0 
L 45.40625 8.203125 
Q 42.578125 3.328125 38.25 0.953125 
Q 33.9375 -1.421875 27.875 -1.421875 
Q 17.96875 -1.421875 11.734375 6.484375 
Q 5.515625 14.40625 5.515625 27.296875 
Q 5.515625 40.1875 11.734375 48.09375 
Q 17.96875 56 27.875 56 
Q 33.9375 56 38.25 53.625 
Q 42.578125 51.265625 45.40625 46.390625 
M 14.796875 27.296875 
Q 14.796875 17.390625 18.875 11.75 
Q 22.953125 6.109375 30.078125 6.109375 
Q 37.203125 6.109375 41.296875 11.75 
Q 45.40625 17.390625 45.40625 27.296875 
Q 45.40625 37.203125 41.296875 42.84375 
Q 37.203125 48.484375 30.078125 48.484375 
Q 22.953125 48.484375 18.875 42.84375 
Q 14.796875 37.203125 14.796875 27.296875 
" id="DejaVuSans-64"/>
      </defs>
      <g style="fill:#555555;" transform="translate(180.759269 398.14435)rotate(-45)scale(0.1 -0.1)">
       <use xlink:href="#DejaVuSans-73"/>
       <use x="52.099609" xlink:href="#DejaVuSans-70"/>
       <use x="115.576172" xlink:href="#DejaVuSans-64"/>
      </g>
     </g>
    </g>
    <g id="xtick_8">
     <g id="line2d_15">
      <path clip-path="url(#pff6b34ea2c)" d="M 211.942645 373.109813 
L 211.942645 40.469812 
" style="fill:none;stroke:#ffffff;stroke-linecap:round;"/>
     </g>
     <g id="line2d_16"/>
     <g id="text_8">
      <!-- 264_RAD_original -->
      <defs>
       <path d="M 19.1875 8.296875 
L 53.609375 8.296875 
L 53.609375 0 
L 7.328125 0 
L 7.328125 8.296875 
Q 12.9375 14.109375 22.625 23.890625 
Q 32.328125 33.6875 34.8125 36.53125 
Q 39.546875 41.84375 41.421875 45.53125 
Q 43.3125 49.21875 43.3125 52.78125 
Q 43.3125 58.59375 39.234375 62.25 
Q 35.15625 65.921875 28.609375 65.921875 
Q 23.96875 65.921875 18.8125 64.3125 
Q 13.671875 62.703125 7.8125 59.421875 
L 7.8125 69.390625 
Q 13.765625 71.78125 18.9375 73 
Q 24.125 74.21875 28.421875 74.21875 
Q 39.75 74.21875 46.484375 68.546875 
Q 53.21875 62.890625 53.21875 53.421875 
Q 53.21875 48.921875 51.53125 44.890625 
Q 49.859375 40.875 45.40625 35.40625 
Q 44.1875 33.984375 37.640625 27.21875 
Q 31.109375 20.453125 19.1875 8.296875 
" id="DejaVuSans-32"/>
       <path d="M 37.796875 64.3125 
L 12.890625 25.390625 
L 37.796875 25.390625 
z
M 35.203125 72.90625 
L 47.609375 72.90625 
L 47.609375 25.390625 
L 58.015625 25.390625 
L 58.015625 17.1875 
L 47.609375 17.1875 
L 47.609375 0 
L 37.796875 0 
L 37.796875 17.1875 
L 4.890625 17.1875 
L 4.890625 26.703125 
z
" id="DejaVuSans-34"/>
      </defs>
      <g style="fill:#555555;" transform="translate(148.086483 447.671656)rotate(-45)scale(0.1 -0.1)">
       <use xlink:href="#DejaVuSans-32"/>
       <use x="63.623047" xlink:href="#DejaVuSans-36"/>
       <use x="127.246094" xlink:href="#DejaVuSans-34"/>
       <use x="190.869141" xlink:href="#DejaVuSans-5f"/>
       <use x="240.869141" xlink:href="#DejaVuSans-52"/>
       <use x="310.289062" xlink:href="#DejaVuSans-41"/>
       <use x="378.697266" xlink:href="#DejaVuSans-44"/>
       <use x="455.699219" xlink:href="#DejaVuSans-5f"/>
       <use x="505.699219" xlink:href="#DejaVuSans-6f"/>
       <use x="566.880859" xlink:href="#DejaVuSans-72"/>
       <use x="607.994141" xlink:href="#DejaVuSans-69"/>
       <use x="635.777344" xlink:href="#DejaVuSans-67"/>
       <use x="699.253906" xlink:href="#DejaVuSans-69"/>
       <use x="727.037109" xlink:href="#DejaVuSans-6e"/>
       <use x="790.416016" xlink:href="#DejaVuSans-61"/>
       <use x="851.695312" xlink:href="#DejaVuSans-6c"/>
      </g>
     </g>
    </g>
    <g id="xtick_9">
     <g id="line2d_17">
      <path clip-path="url(#pff6b34ea2c)" d="M 228.993829 373.109813 
L 228.993829 40.469812 
" style="fill:none;stroke:#ffffff;stroke-linecap:round;"/>
     </g>
     <g id="line2d_18"/>
     <g id="text_9">
      <!-- 167a_RAD_original -->
      <defs>
       <path d="M 12.40625 8.296875 
L 28.515625 8.296875 
L 28.515625 63.921875 
L 10.984375 60.40625 
L 10.984375 69.390625 
L 28.421875 72.90625 
L 38.28125 72.90625 
L 38.28125 8.296875 
L 54.390625 8.296875 
L 54.390625 0 
L 12.40625 0 
z
" id="DejaVuSans-31"/>
       <path d="M 8.203125 72.90625 
L 55.078125 72.90625 
L 55.078125 68.703125 
L 28.609375 0 
L 18.3125 0 
L 43.21875 64.59375 
L 8.203125 64.59375 
z
" id="DejaVuSans-37"/>
      </defs>
      <g style="fill:#555555;" transform="translate(160.804429 452.004894)rotate(-45)scale(0.1 -0.1)">
       <use xlink:href="#DejaVuSans-31"/>
       <use x="63.623047" xlink:href="#DejaVuSans-36"/>
       <use x="127.246094" xlink:href="#DejaVuSans-37"/>
       <use x="190.869141" xlink:href="#DejaVuSans-61"/>
       <use x="252.148438" xlink:href="#DejaVuSans-5f"/>
       <use x="302.148438" xlink:href="#DejaVuSans-52"/>
       <use x="371.568359" xlink:href="#DejaVuSans-41"/>
       <use x="439.976562" xlink:href="#DejaVuSans-44"/>
       <use x="516.978516" xlink:href="#DejaVuSans-5f"/>
       <use x="566.978516" xlink:href="#DejaVuSans-6f"/>
       <use x="628.160156" xlink:href="#DejaVuSans-72"/>
       <use x="669.273438" xlink:href="#DejaVuSans-69"/>
       <use x="697.056641" xlink:href="#DejaVuSans-67"/>
       <use x="760.533203" xlink:href="#DejaVuSans-69"/>
       <use x="788.316406" xlink:href="#DejaVuSans-6e"/>
       <use x="851.695312" xlink:href="#DejaVuSans-61"/>
       <use x="912.974609" xlink:href="#DejaVuSans-6c"/>
      </g>
     </g>
    </g>
    <g id="xtick_10">
     <g id="line2d_19">
      <path clip-path="url(#pff6b34ea2c)" d="M 246.045013 373.109813 
L 246.045013 40.469812 
" style="fill:none;stroke:#ffffff;stroke-linecap:round;"/>
     </g>
     <g id="line2d_20"/>
     <g id="text_10">
      <!-- 2994_RAD_original -->
      <g style="fill:#555555;" transform="translate(177.689885 452.170623)rotate(-45)scale(0.1 -0.1)">
       <use xlink:href="#DejaVuSans-32"/>
       <use x="63.623047" xlink:href="#DejaVuSans-39"/>
       <use x="127.246094" xlink:href="#DejaVuSans-39"/>
       <use x="190.869141" xlink:href="#DejaVuSans-34"/>
       <use x="254.492188" xlink:href="#DejaVuSans-5f"/>
       <use x="304.492188" xlink:href="#DejaVuSans-52"/>
       <use x="373.912109" xlink:href="#DejaVuSans-41"/>
       <use x="442.320312" xlink:href="#DejaVuSans-44"/>
       <use x="519.322266" xlink:href="#DejaVuSans-5f"/>
       <use x="569.322266" xlink:href="#DejaVuSans-6f"/>
       <use x="630.503906" xlink:href="#DejaVuSans-72"/>
       <use x="671.617188" xlink:href="#DejaVuSans-69"/>
       <use x="699.400391" xlink:href="#DejaVuSans-67"/>
       <use x="762.876953" xlink:href="#DejaVuSans-69"/>
       <use x="790.660156" xlink:href="#DejaVuSans-6e"/>
       <use x="854.039062" xlink:href="#DejaVuSans-61"/>
       <use x="915.318359" xlink:href="#DejaVuSans-6c"/>
      </g>
     </g>
    </g>
    <g id="xtick_11">
     <g id="line2d_21">
      <path clip-path="url(#pff6b34ea2c)" d="M 263.096197 373.109813 
L 263.096197 40.469812 
" style="fill:none;stroke:#ffffff;stroke-linecap:round;"/>
     </g>
     <g id="line2d_22"/>
     <g id="text_11">
      <!-- 70_RAD_original -->
      <g style="fill:#555555;" transform="translate(203.739003 443.172689)rotate(-45)scale(0.1 -0.1)">
       <use xlink:href="#DejaVuSans-37"/>
       <use x="63.623047" xlink:href="#DejaVuSans-30"/>
       <use x="127.246094" xlink:href="#DejaVuSans-5f"/>
       <use x="177.246094" xlink:href="#DejaVuSans-52"/>
       <use x="246.666016" xlink:href="#DejaVuSans-41"/>
       <use x="315.074219" xlink:href="#DejaVuSans-44"/>
       <use x="392.076172" xlink:href="#DejaVuSans-5f"/>
       <use x="442.076172" xlink:href="#DejaVuSans-6f"/>
       <use x="503.257812" xlink:href="#DejaVuSans-72"/>
       <use x="544.371094" xlink:href="#DejaVuSans-69"/>
       <use x="572.154297" xlink:href="#DejaVuSans-67"/>
       <use x="635.630859" xlink:href="#DejaVuSans-69"/>
       <use x="663.414062" xlink:href="#DejaVuSans-6e"/>
       <use x="726.792969" xlink:href="#DejaVuSans-61"/>
       <use x="788.072266" xlink:href="#DejaVuSans-6c"/>
      </g>
     </g>
    </g>
    <g id="xtick_12">
     <g id="line2d_23">
      <path clip-path="url(#pff6b34ea2c)" d="M 280.147382 373.109813 
L 280.147382 40.469812 
" style="fill:none;stroke:#ffffff;stroke-linecap:round;"/>
     </g>
     <g id="line2d_24"/>
     <g id="text_12">
      <!-- 292_RAD_original -->
      <g style="fill:#555555;" transform="translate(216.29122 447.671656)rotate(-45)scale(0.1 -0.1)">
       <use xlink:href="#DejaVuSans-32"/>
       <use x="63.623047" xlink:href="#DejaVuSans-39"/>
       <use x="127.246094" xlink:href="#DejaVuSans-32"/>
       <use x="190.869141" xlink:href="#DejaVuSans-5f"/>
       <use x="240.869141" xlink:href="#DejaVuSans-52"/>
       <use x="310.289062" xlink:href="#DejaVuSans-41"/>
       <use x="378.697266" xlink:href="#DejaVuSans-44"/>
       <use x="455.699219" xlink:href="#DejaVuSans-5f"/>
       <use x="505.699219" xlink:href="#DejaVuSans-6f"/>
       <use x="566.880859" xlink:href="#DejaVuSans-72"/>
       <use x="607.994141" xlink:href="#DejaVuSans-69"/>
       <use x="635.777344" xlink:href="#DejaVuSans-67"/>
       <use x="699.253906" xlink:href="#DejaVuSans-69"/>
       <use x="727.037109" xlink:href="#DejaVuSans-6e"/>
       <use x="790.416016" xlink:href="#DejaVuSans-61"/>
       <use x="851.695312" xlink:href="#DejaVuSans-6c"/>
      </g>
     </g>
    </g>
    <g id="xtick_13">
     <g id="line2d_25">
      <path clip-path="url(#pff6b34ea2c)" d="M 297.198566 373.109813 
L 297.198566 40.469812 
" style="fill:none;stroke:#ffffff;stroke-linecap:round;"/>
     </g>
     <g id="line2d_26"/>
     <g id="text_13">
      <!-- 1427_RAD_original -->
      <g style="fill:#555555;" transform="translate(228.843437 452.170623)rotate(-45)scale(0.1 -0.1)">
       <use xlink:href="#DejaVuSans-31"/>
       <use x="63.623047" xlink:href="#DejaVuSans-34"/>
       <use x="127.246094" xlink:href="#DejaVuSans-32"/>
       <use x="190.869141" xlink:href="#DejaVuSans-37"/>
       <use x="254.492188" xlink:href="#DejaVuSans-5f"/>
       <use x="304.492188" xlink:href="#DejaVuSans-52"/>
       <use x="373.912109" xlink:href="#DejaVuSans-41"/>
       <use x="442.320312" xlink:href="#DejaVuSans-44"/>
       <use x="519.322266" xlink:href="#DejaVuSans-5f"/>
       <use x="569.322266" xlink:href="#DejaVuSans-6f"/>
       <use x="630.503906" xlink:href="#DejaVuSans-72"/>
       <use x="671.617188" xlink:href="#DejaVuSans-69"/>
       <use x="699.400391" xlink:href="#DejaVuSans-67"/>
       <use x="762.876953" xlink:href="#DejaVuSans-69"/>
       <use x="790.660156" xlink:href="#DejaVuSans-6e"/>
       <use x="854.039062" xlink:href="#DejaVuSans-61"/>
       <use x="915.318359" xlink:href="#DejaVuSans-6c"/>
      </g>
     </g>
    </g>
    <g id="xtick_14">
     <g id="line2d_27">
      <path clip-path="url(#pff6b34ea2c)" d="M 314.24975 373.109813 
L 314.24975 40.469812 
" style="fill:none;stroke:#ffffff;stroke-linecap:round;"/>
     </g>
     <g id="line2d_28"/>
     <g id="text_14">
      <!-- 137a_RAD_original -->
      <g style="fill:#555555;" transform="translate(246.060349 452.004894)rotate(-45)scale(0.1 -0.1)">
       <use xlink:href="#DejaVuSans-31"/>
       <use x="63.623047" xlink:href="#DejaVuSans-33"/>
       <use x="127.246094" xlink:href="#DejaVuSans-37"/>
       <use x="190.869141" xlink:href="#DejaVuSans-61"/>
       <use x="252.148438" xlink:href="#DejaVuSans-5f"/>
       <use x="302.148438" xlink:href="#DejaVuSans-52"/>
       <use x="371.568359" xlink:href="#DejaVuSans-41"/>
       <use x="439.976562" xlink:href="#DejaVuSans-44"/>
       <use x="516.978516" xlink:href="#DejaVuSans-5f"/>
       <use x="566.978516" xlink:href="#DejaVuSans-6f"/>
       <use x="628.160156" xlink:href="#DejaVuSans-72"/>
       <use x="669.273438" xlink:href="#DejaVuSans-69"/>
       <use x="697.056641" xlink:href="#DejaVuSans-67"/>
       <use x="760.533203" xlink:href="#DejaVuSans-69"/>
       <use x="788.316406" xlink:href="#DejaVuSans-6e"/>
       <use x="851.695312" xlink:href="#DejaVuSans-61"/>
       <use x="912.974609" xlink:href="#DejaVuSans-6c"/>
      </g>
     </g>
    </g>
    <g id="xtick_15">
     <g id="line2d_29">
      <path clip-path="url(#pff6b34ea2c)" d="M 331.300934 373.109813 
L 331.300934 40.469812 
" style="fill:none;stroke:#ffffff;stroke-linecap:round;"/>
     </g>
     <g id="line2d_30"/>
     <g id="text_15">
      <!-- 37_RAD_original -->
      <g style="fill:#555555;" transform="translate(271.943739 443.172689)rotate(-45)scale(0.1 -0.1)">
       <use xlink:href="#DejaVuSans-33"/>
       <use x="63.623047" xlink:href="#DejaVuSans-37"/>
       <use x="127.246094" xlink:href="#DejaVuSans-5f"/>
       <use x="177.246094" xlink:href="#DejaVuSans-52"/>
       <use x="246.666016" xlink:href="#DejaVuSans-41"/>
       <use x="315.074219" xlink:href="#DejaVuSans-44"/>
       <use x="392.076172" xlink:href="#DejaVuSans-5f"/>
       <use x="442.076172" xlink:href="#DejaVuSans-6f"/>
       <use x="503.257812" xlink:href="#DejaVuSans-72"/>
       <use x="544.371094" xlink:href="#DejaVuSans-69"/>
       <use x="572.154297" xlink:href="#DejaVuSans-67"/>
       <use x="635.630859" xlink:href="#DejaVuSans-69"/>
       <use x="663.414062" xlink:href="#DejaVuSans-6e"/>
       <use x="726.792969" xlink:href="#DejaVuSans-61"/>
       <use x="788.072266" xlink:href="#DejaVuSans-6c"/>
      </g>
     </g>
    </g>
    <g id="xtick_16">
     <g id="line2d_31">
      <path clip-path="url(#pff6b34ea2c)" d="M 348.352118 373.109813 
L 348.352118 40.469812 
" style="fill:none;stroke:#ffffff;stroke-linecap:round;"/>
     </g>
     <g id="line2d_32"/>
     <g id="text_16">
      <!-- 535_RAD_original -->
      <g style="fill:#555555;" transform="translate(284.495956 447.671656)rotate(-45)scale(0.1 -0.1)">
       <use xlink:href="#DejaVuSans-35"/>
       <use x="63.623047" xlink:href="#DejaVuSans-33"/>
       <use x="127.246094" xlink:href="#DejaVuSans-35"/>
       <use x="190.869141" xlink:href="#DejaVuSans-5f"/>
       <use x="240.869141" xlink:href="#DejaVuSans-52"/>
       <use x="310.289062" xlink:href="#DejaVuSans-41"/>
       <use x="378.697266" xlink:href="#DejaVuSans-44"/>
       <use x="455.699219" xlink:href="#DejaVuSans-5f"/>
       <use x="505.699219" xlink:href="#DejaVuSans-6f"/>
       <use x="566.880859" xlink:href="#DejaVuSans-72"/>
       <use x="607.994141" xlink:href="#DejaVuSans-69"/>
       <use x="635.777344" xlink:href="#DejaVuSans-67"/>
       <use x="699.253906" xlink:href="#DejaVuSans-69"/>
       <use x="727.037109" xlink:href="#DejaVuSans-6e"/>
       <use x="790.416016" xlink:href="#DejaVuSans-61"/>
       <use x="851.695312" xlink:href="#DejaVuSans-6c"/>
      </g>
     </g>
    </g>
    <g id="xtick_17">
     <g id="line2d_33">
      <path clip-path="url(#pff6b34ea2c)" d="M 365.403302 373.109813 
L 365.403302 40.469812 
" style="fill:none;stroke:#ffffff;stroke-linecap:round;"/>
     </g>
     <g id="line2d_34"/>
     <g id="text_17">
      <!-- 3302_RAD_original -->
      <g style="fill:#555555;" transform="translate(297.048173 452.170623)rotate(-45)scale(0.1 -0.1)">
       <use xlink:href="#DejaVuSans-33"/>
       <use x="63.623047" xlink:href="#DejaVuSans-33"/>
       <use x="127.246094" xlink:href="#DejaVuSans-30"/>
       <use x="190.869141" xlink:href="#DejaVuSans-32"/>
       <use x="254.492188" xlink:href="#DejaVuSans-5f"/>
       <use x="304.492188" xlink:href="#DejaVuSans-52"/>
       <use x="373.912109" xlink:href="#DejaVuSans-41"/>
       <use x="442.320312" xlink:href="#DejaVuSans-44"/>
       <use x="519.322266" xlink:href="#DejaVuSans-5f"/>
       <use x="569.322266" xlink:href="#DejaVuSans-6f"/>
       <use x="630.503906" xlink:href="#DejaVuSans-72"/>
       <use x="671.617188" xlink:href="#DejaVuSans-69"/>
       <use x="699.400391" xlink:href="#DejaVuSans-67"/>
       <use x="762.876953" xlink:href="#DejaVuSans-69"/>
       <use x="790.660156" xlink:href="#DejaVuSans-6e"/>
       <use x="854.039062" xlink:href="#DejaVuSans-61"/>
       <use x="915.318359" xlink:href="#DejaVuSans-6c"/>
      </g>
     </g>
    </g>
    <g id="xtick_18">
     <g id="line2d_35">
      <path clip-path="url(#pff6b34ea2c)" d="M 382.454486 373.109813 
L 382.454486 40.469812 
" style="fill:none;stroke:#ffffff;stroke-linecap:round;"/>
     </g>
     <g id="line2d_36"/>
     <g id="text_18">
      <!-- 178_RAD_original -->
      <defs>
       <path d="M 31.78125 34.625 
Q 24.75 34.625 20.71875 30.859375 
Q 16.703125 27.09375 16.703125 20.515625 
Q 16.703125 13.921875 20.71875 10.15625 
Q 24.75 6.390625 31.78125 6.390625 
Q 38.8125 6.390625 42.859375 10.171875 
Q 46.921875 13.96875 46.921875 20.515625 
Q 46.921875 27.09375 42.890625 30.859375 
Q 38.875 34.625 31.78125 34.625 
M 21.921875 38.8125 
Q 15.578125 40.375 12.03125 44.71875 
Q 8.5 49.078125 8.5 55.328125 
Q 8.5 64.0625 14.71875 69.140625 
Q 20.953125 74.21875 31.78125 74.21875 
Q 42.671875 74.21875 48.875 69.140625 
Q 55.078125 64.0625 55.078125 55.328125 
Q 55.078125 49.078125 51.53125 44.71875 
Q 48 40.375 41.703125 38.8125 
Q 48.828125 37.15625 52.796875 32.3125 
Q 56.78125 27.484375 56.78125 20.515625 
Q 56.78125 9.90625 50.3125 4.234375 
Q 43.84375 -1.421875 31.78125 -1.421875 
Q 19.734375 -1.421875 13.25 4.234375 
Q 6.78125 9.90625 6.78125 20.515625 
Q 6.78125 27.484375 10.78125 32.3125 
Q 14.796875 37.15625 21.921875 38.8125 
M 18.3125 54.390625 
Q 18.3125 48.734375 21.84375 45.5625 
Q 25.390625 42.390625 31.78125 42.390625 
Q 38.140625 42.390625 41.71875 45.5625 
Q 45.3125 48.734375 45.3125 54.390625 
Q 45.3125 60.0625 41.71875 63.234375 
Q 38.140625 66.40625 31.78125 66.40625 
Q 25.390625 66.40625 21.84375 63.234375 
Q 18.3125 60.0625 18.3125 54.390625 
" id="DejaVuSans-38"/>
      </defs>
      <g style="fill:#555555;" transform="translate(318.598324 447.671656)rotate(-45)scale(0.1 -0.1)">
       <use xlink:href="#DejaVuSans-31"/>
       <use x="63.623047" xlink:href="#DejaVuSans-37"/>
       <use x="127.246094" xlink:href="#DejaVuSans-38"/>
       <use x="190.869141" xlink:href="#DejaVuSans-5f"/>
       <use x="240.869141" xlink:href="#DejaVuSans-52"/>
       <use x="310.289062" xlink:href="#DejaVuSans-41"/>
       <use x="378.697266" xlink:href="#DejaVuSans-44"/>
       <use x="455.699219" xlink:href="#DejaVuSans-5f"/>
       <use x="505.699219" xlink:href="#DejaVuSans-6f"/>
       <use x="566.880859" xlink:href="#DejaVuSans-72"/>
       <use x="607.994141" xlink:href="#DejaVuSans-69"/>
       <use x="635.777344" xlink:href="#DejaVuSans-67"/>
       <use x="699.253906" xlink:href="#DejaVuSans-69"/>
       <use x="727.037109" xlink:href="#DejaVuSans-6e"/>
       <use x="790.416016" xlink:href="#DejaVuSans-61"/>
       <use x="851.695312" xlink:href="#DejaVuSans-6c"/>
      </g>
     </g>
    </g>
    <g id="xtick_19">
     <g id="line2d_37">
      <path clip-path="url(#pff6b34ea2c)" d="M 399.50567 373.109813 
L 399.50567 40.469812 
" style="fill:none;stroke:#ffffff;stroke-linecap:round;"/>
     </g>
     <g id="line2d_38"/>
     <g id="text_19">
      <!-- 815_RAD_original -->
      <g style="fill:#555555;" transform="translate(335.649509 447.671656)rotate(-45)scale(0.1 -0.1)">
       <use xlink:href="#DejaVuSans-38"/>
       <use x="63.623047" xlink:href="#DejaVuSans-31"/>
       <use x="127.246094" xlink:href="#DejaVuSans-35"/>
       <use x="190.869141" xlink:href="#DejaVuSans-5f"/>
       <use x="240.869141" xlink:href="#DejaVuSans-52"/>
       <use x="310.289062" xlink:href="#DejaVuSans-41"/>
       <use x="378.697266" xlink:href="#DejaVuSans-44"/>
       <use x="455.699219" xlink:href="#DejaVuSans-5f"/>
       <use x="505.699219" xlink:href="#DejaVuSans-6f"/>
       <use x="566.880859" xlink:href="#DejaVuSans-72"/>
       <use x="607.994141" xlink:href="#DejaVuSans-69"/>
       <use x="635.777344" xlink:href="#DejaVuSans-67"/>
       <use x="699.253906" xlink:href="#DejaVuSans-69"/>
       <use x="727.037109" xlink:href="#DejaVuSans-6e"/>
       <use x="790.416016" xlink:href="#DejaVuSans-61"/>
       <use x="851.695312" xlink:href="#DejaVuSans-6c"/>
      </g>
     </g>
    </g>
    <g id="xtick_20">
     <g id="line2d_39">
      <path clip-path="url(#pff6b34ea2c)" d="M 416.556854 373.109813 
L 416.556854 40.469812 
" style="fill:none;stroke:#ffffff;stroke-linecap:round;"/>
     </g>
     <g id="line2d_40"/>
     <g id="text_20">
      <!-- 130a_RAD_original -->
      <g style="fill:#555555;" transform="translate(348.367454 452.004894)rotate(-45)scale(0.1 -0.1)">
       <use xlink:href="#DejaVuSans-31"/>
       <use x="63.623047" xlink:href="#DejaVuSans-33"/>
       <use x="127.246094" xlink:href="#DejaVuSans-30"/>
       <use x="190.869141" xlink:href="#DejaVuSans-61"/>
       <use x="252.148438" xlink:href="#DejaVuSans-5f"/>
       <use x="302.148438" xlink:href="#DejaVuSans-52"/>
       <use x="371.568359" xlink:href="#DejaVuSans-41"/>
       <use x="439.976562" xlink:href="#DejaVuSans-44"/>
       <use x="516.978516" xlink:href="#DejaVuSans-5f"/>
       <use x="566.978516" xlink:href="#DejaVuSans-6f"/>
       <use x="628.160156" xlink:href="#DejaVuSans-72"/>
       <use x="669.273438" xlink:href="#DejaVuSans-69"/>
       <use x="697.056641" xlink:href="#DejaVuSans-67"/>
       <use x="760.533203" xlink:href="#DejaVuSans-69"/>
       <use x="788.316406" xlink:href="#DejaVuSans-6e"/>
       <use x="851.695312" xlink:href="#DejaVuSans-61"/>
       <use x="912.974609" xlink:href="#DejaVuSans-6c"/>
      </g>
     </g>
    </g>
    <g id="xtick_21">
     <g id="line2d_41">
      <path clip-path="url(#pff6b34ea2c)" d="M 433.608039 373.109813 
L 433.608039 40.469812 
" style="fill:none;stroke:#ffffff;stroke-linecap:round;"/>
     </g>
     <g id="line2d_42"/>
     <g id="text_21">
      <!-- 2191_RAD_original -->
      <g style="fill:#555555;" transform="translate(365.25291 452.170623)rotate(-45)scale(0.1 -0.1)">
       <use xlink:href="#DejaVuSans-32"/>
       <use x="63.623047" xlink:href="#DejaVuSans-31"/>
       <use x="127.246094" xlink:href="#DejaVuSans-39"/>
       <use x="190.869141" xlink:href="#DejaVuSans-31"/>
       <use x="254.492188" xlink:href="#DejaVuSans-5f"/>
       <use x="304.492188" xlink:href="#DejaVuSans-52"/>
       <use x="373.912109" xlink:href="#DejaVuSans-41"/>
       <use x="442.320312" xlink:href="#DejaVuSans-44"/>
       <use x="519.322266" xlink:href="#DejaVuSans-5f"/>
       <use x="569.322266" xlink:href="#DejaVuSans-6f"/>
       <use x="630.503906" xlink:href="#DejaVuSans-72"/>
       <use x="671.617188" xlink:href="#DejaVuSans-69"/>
       <use x="699.400391" xlink:href="#DejaVuSans-67"/>
       <use x="762.876953" xlink:href="#DejaVuSans-69"/>
       <use x="790.660156" xlink:href="#DejaVuSans-6e"/>
       <use x="854.039062" xlink:href="#DejaVuSans-61"/>
       <use x="915.318359" xlink:href="#DejaVuSans-6c"/>
      </g>
     </g>
    </g>
    <g id="xtick_22">
     <g id="line2d_43">
      <path clip-path="url(#pff6b34ea2c)" d="M 450.659223 373.109813 
L 450.659223 40.469812 
" style="fill:none;stroke:#ffffff;stroke-linecap:round;"/>
     </g>
     <g id="line2d_44"/>
     <g id="text_22">
      <!-- 178a_RAD_original -->
      <g style="fill:#555555;" transform="translate(382.469822 452.004894)rotate(-45)scale(0.1 -0.1)">
       <use xlink:href="#DejaVuSans-31"/>
       <use x="63.623047" xlink:href="#DejaVuSans-37"/>
       <use x="127.246094" xlink:href="#DejaVuSans-38"/>
       <use x="190.869141" xlink:href="#DejaVuSans-61"/>
       <use x="252.148438" xlink:href="#DejaVuSans-5f"/>
       <use x="302.148438" xlink:href="#DejaVuSans-52"/>
       <use x="371.568359" xlink:href="#DejaVuSans-41"/>
       <use x="439.976562" xlink:href="#DejaVuSans-44"/>
       <use x="516.978516" xlink:href="#DejaVuSans-5f"/>
       <use x="566.978516" xlink:href="#DejaVuSans-6f"/>
       <use x="628.160156" xlink:href="#DejaVuSans-72"/>
       <use x="669.273438" xlink:href="#DejaVuSans-69"/>
       <use x="697.056641" xlink:href="#DejaVuSans-67"/>
       <use x="760.533203" xlink:href="#DejaVuSans-69"/>
       <use x="788.316406" xlink:href="#DejaVuSans-6e"/>
       <use x="851.695312" xlink:href="#DejaVuSans-61"/>
       <use x="912.974609" xlink:href="#DejaVuSans-6c"/>
      </g>
     </g>
    </g>
    <g id="xtick_23">
     <g id="line2d_45">
      <path clip-path="url(#pff6b34ea2c)" d="M 467.710407 373.109813 
L 467.710407 40.469812 
" style="fill:none;stroke:#ffffff;stroke-linecap:round;"/>
     </g>
     <g id="line2d_46"/>
     <g id="text_23">
      <!-- 1285_RAD_original -->
      <g style="fill:#555555;" transform="translate(399.355278 452.170623)rotate(-45)scale(0.1 -0.1)">
       <use xlink:href="#DejaVuSans-31"/>
       <use x="63.623047" xlink:href="#DejaVuSans-32"/>
       <use x="127.246094" xlink:href="#DejaVuSans-38"/>
       <use x="190.869141" xlink:href="#DejaVuSans-35"/>
       <use x="254.492188" xlink:href="#DejaVuSans-5f"/>
       <use x="304.492188" xlink:href="#DejaVuSans-52"/>
       <use x="373.912109" xlink:href="#DejaVuSans-41"/>
       <use x="442.320312" xlink:href="#DejaVuSans-44"/>
       <use x="519.322266" xlink:href="#DejaVuSans-5f"/>
       <use x="569.322266" xlink:href="#DejaVuSans-6f"/>
       <use x="630.503906" xlink:href="#DejaVuSans-72"/>
       <use x="671.617188" xlink:href="#DejaVuSans-69"/>
       <use x="699.400391" xlink:href="#DejaVuSans-67"/>
       <use x="762.876953" xlink:href="#DejaVuSans-69"/>
       <use x="790.660156" xlink:href="#DejaVuSans-6e"/>
       <use x="854.039062" xlink:href="#DejaVuSans-61"/>
       <use x="915.318359" xlink:href="#DejaVuSans-6c"/>
      </g>
     </g>
    </g>
    <g id="xtick_24">
     <g id="line2d_47">
      <path clip-path="url(#pff6b34ea2c)" d="M 484.761591 373.109813 
L 484.761591 40.469812 
" style="fill:none;stroke:#ffffff;stroke-linecap:round;"/>
     </g>
     <g id="line2d_48"/>
     <g id="text_24">
      <!-- 3019_RAD_original -->
      <g style="fill:#555555;" transform="translate(416.406462 452.170623)rotate(-45)scale(0.1 -0.1)">
       <use xlink:href="#DejaVuSans-33"/>
       <use x="63.623047" xlink:href="#DejaVuSans-30"/>
       <use x="127.246094" xlink:href="#DejaVuSans-31"/>
       <use x="190.869141" xlink:href="#DejaVuSans-39"/>
       <use x="254.492188" xlink:href="#DejaVuSans-5f"/>
       <use x="304.492188" xlink:href="#DejaVuSans-52"/>
       <use x="373.912109" xlink:href="#DejaVuSans-41"/>
       <use x="442.320312" xlink:href="#DejaVuSans-44"/>
       <use x="519.322266" xlink:href="#DejaVuSans-5f"/>
       <use x="569.322266" xlink:href="#DejaVuSans-6f"/>
       <use x="630.503906" xlink:href="#DejaVuSans-72"/>
       <use x="671.617188" xlink:href="#DejaVuSans-69"/>
       <use x="699.400391" xlink:href="#DejaVuSans-67"/>
       <use x="762.876953" xlink:href="#DejaVuSans-69"/>
       <use x="790.660156" xlink:href="#DejaVuSans-6e"/>
       <use x="854.039062" xlink:href="#DejaVuSans-61"/>
       <use x="915.318359" xlink:href="#DejaVuSans-6c"/>
      </g>
     </g>
    </g>
    <g id="text_25">
     <!-- Taxa -->
     <defs>
      <path d="M 0.484375 72.90625 
L 67.671875 72.90625 
L 67.671875 58.6875 
L 43.5 58.6875 
L 43.5 0 
L 24.703125 0 
L 24.703125 58.6875 
L 0.484375 58.6875 
z
" id="DejaVuSans-Bold-54"/>
      <path d="M 32.90625 24.609375 
Q 27.4375 24.609375 24.671875 22.75 
Q 21.921875 20.90625 21.921875 17.28125 
Q 21.921875 13.96875 24.140625 12.078125 
Q 26.375 10.203125 30.328125 10.203125 
Q 35.25 10.203125 38.625 13.734375 
Q 42 17.28125 42 22.609375 
L 42 24.609375 
z
M 59.625 31.203125 
L 59.625 0 
L 42 0 
L 42 8.109375 
Q 38.484375 3.125 34.078125 0.84375 
Q 29.6875 -1.421875 23.390625 -1.421875 
Q 14.890625 -1.421875 9.59375 3.53125 
Q 4.296875 8.5 4.296875 16.40625 
Q 4.296875 26.03125 10.90625 30.515625 
Q 17.53125 35.015625 31.6875 35.015625 
L 42 35.015625 
L 42 36.375 
Q 42 40.53125 38.71875 42.453125 
Q 35.453125 44.390625 28.515625 44.390625 
Q 22.90625 44.390625 18.0625 43.265625 
Q 13.234375 42.140625 9.078125 39.890625 
L 9.078125 53.21875 
Q 14.703125 54.59375 20.359375 55.296875 
Q 26.03125 56 31.6875 56 
Q 46.484375 56 53.046875 50.171875 
Q 59.625 44.34375 59.625 31.203125 
" id="DejaVuSans-Bold-61"/>
      <path d="M 22.21875 27.984375 
L 2.484375 54.6875 
L 21 54.6875 
L 32.171875 38.484375 
L 43.5 54.6875 
L 62.015625 54.6875 
L 42.28125 28.078125 
L 62.984375 0 
L 44.484375 0 
L 32.171875 17.28125 
L 20.015625 0 
L 1.515625 0 
z
" id="DejaVuSans-Bold-78"/>
     </defs>
     <g style="fill:#808080;" transform="translate(263.1275 479.47566)scale(0.14 -0.14)">
      <use xlink:href="#DejaVuSans-Bold-54"/>
      <use x="68.025391" xlink:href="#DejaVuSans-Bold-61"/>
      <use x="135.505859" xlink:href="#DejaVuSans-Bold-78"/>
      <use x="200.007812" xlink:href="#DejaVuSans-Bold-61"/>
     </g>
    </g>
   </g>
   <g id="matplotlib.axis_2">
    <g id="ytick_1">
     <g id="line2d_49">
      <path clip-path="url(#pff6b34ea2c)" d="M 58.6525 373.109813 
L 505.0525 373.109813 
" style="fill:none;stroke:#ffffff;stroke-linecap:round;"/>
     </g>
     <g id="line2d_50"/>
     <g id="text_26">
      <!-- 0.0 -->
      <defs>
       <path d="M 10.6875 12.40625 
L 21 12.40625 
L 21 0 
L 10.6875 0 
z
" id="DejaVuSans-2e"/>
      </defs>
      <g style="fill:#555555;" transform="translate(35.749375 376.909031)scale(0.1 -0.1)">
       <use xlink:href="#DejaVuSans-30"/>
       <use x="63.623047" xlink:href="#DejaVuSans-2e"/>
       <use x="95.410156" xlink:href="#DejaVuSans-30"/>
      </g>
     </g>
    </g>
    <g id="ytick_2">
     <g id="line2d_51">
      <path clip-path="url(#pff6b34ea2c)" d="M 58.6525 309.749813 
L 505.0525 309.749813 
" style="fill:none;stroke:#ffffff;stroke-linecap:round;"/>
     </g>
     <g id="line2d_52"/>
     <g id="text_27">
      <!-- 0.2 -->
      <g style="fill:#555555;" transform="translate(35.749375 313.549031)scale(0.1 -0.1)">
       <use xlink:href="#DejaVuSans-30"/>
       <use x="63.623047" xlink:href="#DejaVuSans-2e"/>
       <use x="95.410156" xlink:href="#DejaVuSans-32"/>
      </g>
     </g>
    </g>
    <g id="ytick_3">
     <g id="line2d_53">
      <path clip-path="url(#pff6b34ea2c)" d="M 58.6525 246.389813 
L 505.0525 246.389813 
" style="fill:none;stroke:#ffffff;stroke-linecap:round;"/>
     </g>
     <g id="line2d_54"/>
     <g id="text_28">
      <!-- 0.4 -->
      <g style="fill:#555555;" transform="translate(35.749375 250.189031)scale(0.1 -0.1)">
       <use xlink:href="#DejaVuSans-30"/>
       <use x="63.623047" xlink:href="#DejaVuSans-2e"/>
       <use x="95.410156" xlink:href="#DejaVuSans-34"/>
      </g>
     </g>
    </g>
    <g id="ytick_4">
     <g id="line2d_55">
      <path clip-path="url(#pff6b34ea2c)" d="M 58.6525 183.029812 
L 505.0525 183.029812 
" style="fill:none;stroke:#ffffff;stroke-linecap:round;"/>
     </g>
     <g id="line2d_56"/>
     <g id="text_29">
      <!-- 0.6 -->
      <g style="fill:#555555;" transform="translate(35.749375 186.829031)scale(0.1 -0.1)">
       <use xlink:href="#DejaVuSans-30"/>
       <use x="63.623047" xlink:href="#DejaVuSans-2e"/>
       <use x="95.410156" xlink:href="#DejaVuSans-36"/>
      </g>
     </g>
    </g>
    <g id="ytick_5">
     <g id="line2d_57">
      <path clip-path="url(#pff6b34ea2c)" d="M 58.6525 119.669813 
L 505.0525 119.669813 
" style="fill:none;stroke:#ffffff;stroke-linecap:round;"/>
     </g>
     <g id="line2d_58"/>
     <g id="text_30">
      <!-- 0.8 -->
      <g style="fill:#555555;" transform="translate(35.749375 123.469031)scale(0.1 -0.1)">
       <use xlink:href="#DejaVuSans-30"/>
       <use x="63.623047" xlink:href="#DejaVuSans-2e"/>
       <use x="95.410156" xlink:href="#DejaVuSans-38"/>
      </g>
     </g>
    </g>
    <g id="ytick_6">
     <g id="line2d_59">
      <path clip-path="url(#pff6b34ea2c)" d="M 58.6525 56.309813 
L 505.0525 56.309813 
" style="fill:none;stroke:#ffffff;stroke-linecap:round;"/>
     </g>
     <g id="line2d_60"/>
     <g id="text_31">
      <!-- 1.0 -->
      <g style="fill:#555555;" transform="translate(35.749375 60.109031)scale(0.1 -0.1)">
       <use xlink:href="#DejaVuSans-31"/>
       <use x="63.623047" xlink:href="#DejaVuSans-2e"/>
       <use x="95.410156" xlink:href="#DejaVuSans-30"/>
      </g>
     </g>
    </g>
    <g id="text_32">
     <!-- Nucleotide -->
     <defs>
      <path d="M 9.1875 72.90625 
L 30.171875 72.90625 
L 56.6875 22.90625 
L 56.6875 72.90625 
L 74.515625 72.90625 
L 74.515625 0 
L 53.515625 0 
L 27 50 
L 27 0 
L 9.1875 0 
z
" id="DejaVuSans-Bold-4e"/>
      <path d="M 7.8125 21.296875 
L 7.8125 54.6875 
L 25.390625 54.6875 
L 25.390625 49.21875 
Q 25.390625 44.78125 25.34375 38.0625 
Q 25.296875 31.34375 25.296875 29.109375 
Q 25.296875 22.515625 25.640625 19.609375 
Q 25.984375 16.703125 26.8125 15.375 
Q 27.875 13.671875 29.609375 12.734375 
Q 31.34375 11.8125 33.59375 11.8125 
Q 39.0625 11.8125 42.1875 16.015625 
Q 45.3125 20.21875 45.3125 27.6875 
L 45.3125 54.6875 
L 62.796875 54.6875 
L 62.796875 0 
L 45.3125 0 
L 45.3125 7.90625 
Q 41.359375 3.125 36.9375 0.84375 
Q 32.515625 -1.421875 27.203125 -1.421875 
Q 17.71875 -1.421875 12.765625 4.390625 
Q 7.8125 10.203125 7.8125 21.296875 
" id="DejaVuSans-Bold-75"/>
      <path d="M 52.59375 52.984375 
L 52.59375 38.71875 
Q 49.03125 41.15625 45.4375 42.328125 
Q 41.84375 43.5 37.984375 43.5 
Q 30.671875 43.5 26.59375 39.234375 
Q 22.515625 34.96875 22.515625 27.296875 
Q 22.515625 19.625 26.59375 15.34375 
Q 30.671875 11.078125 37.984375 11.078125 
Q 42.09375 11.078125 45.78125 12.296875 
Q 49.46875 13.53125 52.59375 15.921875 
L 52.59375 1.609375 
Q 48.484375 0.09375 44.265625 -0.65625 
Q 40.046875 -1.421875 35.796875 -1.421875 
Q 21 -1.421875 12.640625 6.171875 
Q 4.296875 13.765625 4.296875 27.296875 
Q 4.296875 40.828125 12.640625 48.40625 
Q 21 56 35.796875 56 
Q 40.09375 56 44.265625 55.25 
Q 48.4375 54.5 52.59375 52.984375 
" id="DejaVuSans-Bold-63"/>
      <path d="M 8.40625 75.984375 
L 25.875 75.984375 
L 25.875 0 
L 8.40625 0 
z
" id="DejaVuSans-Bold-6c"/>
      <path d="M 62.984375 27.484375 
L 62.984375 22.515625 
L 22.125 22.515625 
Q 22.75 16.359375 26.5625 13.28125 
Q 30.375 10.203125 37.203125 10.203125 
Q 42.71875 10.203125 48.5 11.84375 
Q 54.296875 13.484375 60.40625 16.796875 
L 60.40625 3.328125 
Q 54.203125 0.984375 48 -0.21875 
Q 41.796875 -1.421875 35.59375 -1.421875 
Q 20.75 -1.421875 12.515625 6.125 
Q 4.296875 13.671875 4.296875 27.296875 
Q 4.296875 40.671875 12.375 48.328125 
Q 20.453125 56 34.625 56 
Q 47.515625 56 55.25 48.234375 
Q 62.984375 40.484375 62.984375 27.484375 
M 45.015625 33.296875 
Q 45.015625 38.28125 42.109375 41.328125 
Q 39.203125 44.390625 34.515625 44.390625 
Q 29.4375 44.390625 26.265625 41.53125 
Q 23.09375 38.671875 22.3125 33.296875 
z
" id="DejaVuSans-Bold-65"/>
      <path d="M 34.421875 43.5 
Q 28.609375 43.5 25.5625 39.328125 
Q 22.515625 35.15625 22.515625 27.296875 
Q 22.515625 19.4375 25.5625 15.25 
Q 28.609375 11.078125 34.421875 11.078125 
Q 40.140625 11.078125 43.15625 15.25 
Q 46.1875 19.4375 46.1875 27.296875 
Q 46.1875 35.15625 43.15625 39.328125 
Q 40.140625 43.5 34.421875 43.5 
M 34.421875 56 
Q 48.53125 56 56.46875 48.375 
Q 64.40625 40.765625 64.40625 27.296875 
Q 64.40625 13.8125 56.46875 6.1875 
Q 48.53125 -1.421875 34.421875 -1.421875 
Q 20.265625 -1.421875 12.28125 6.1875 
Q 4.296875 13.8125 4.296875 27.296875 
Q 4.296875 40.765625 12.28125 48.375 
Q 20.265625 56 34.421875 56 
" id="DejaVuSans-Bold-6f"/>
      <path d="M 27.484375 70.21875 
L 27.484375 54.6875 
L 45.515625 54.6875 
L 45.515625 42.1875 
L 27.484375 42.1875 
L 27.484375 19 
Q 27.484375 15.1875 29 13.84375 
Q 30.515625 12.5 35.015625 12.5 
L 44 12.5 
L 44 0 
L 29 0 
Q 18.65625 0 14.328125 4.3125 
Q 10.015625 8.640625 10.015625 19 
L 10.015625 42.1875 
L 1.3125 42.1875 
L 1.3125 54.6875 
L 10.015625 54.6875 
L 10.015625 70.21875 
z
" id="DejaVuSans-Bold-74"/>
      <path d="M 8.40625 54.6875 
L 25.875 54.6875 
L 25.875 0 
L 8.40625 0 
z
M 8.40625 75.984375 
L 25.875 75.984375 
L 25.875 61.71875 
L 8.40625 61.71875 
z
" id="DejaVuSans-Bold-69"/>
      <path d="M 45.609375 46.6875 
L 45.609375 75.984375 
L 63.1875 75.984375 
L 63.1875 0 
L 45.609375 0 
L 45.609375 7.90625 
Q 42 3.078125 37.640625 0.828125 
Q 33.296875 -1.421875 27.59375 -1.421875 
Q 17.484375 -1.421875 10.984375 6.609375 
Q 4.5 14.65625 4.5 27.296875 
Q 4.5 39.9375 10.984375 47.96875 
Q 17.484375 56 27.59375 56 
Q 33.25 56 37.625 53.734375 
Q 42 51.46875 45.609375 46.6875 
M 34.078125 11.28125 
Q 39.703125 11.28125 42.65625 15.375 
Q 45.609375 19.484375 45.609375 27.296875 
Q 45.609375 35.109375 42.65625 39.203125 
Q 39.703125 43.3125 34.078125 43.3125 
Q 28.515625 43.3125 25.5625 39.203125 
Q 22.609375 35.109375 22.609375 27.296875 
Q 22.609375 19.484375 25.5625 15.375 
Q 28.515625 11.28125 34.078125 11.28125 
" id="DejaVuSans-Bold-64"/>
     </defs>
     <g style="fill:#808080;" transform="translate(17.837813 249.241531)rotate(-90)scale(0.14 -0.14)">
      <use xlink:href="#DejaVuSans-Bold-4e"/>
      <use x="83.691406" xlink:href="#DejaVuSans-Bold-75"/>
      <use x="154.882812" xlink:href="#DejaVuSans-Bold-63"/>
      <use x="214.160156" xlink:href="#DejaVuSans-Bold-6c"/>
      <use x="248.4375" xlink:href="#DejaVuSans-Bold-65"/>
      <use x="316.259766" xlink:href="#DejaVuSans-Bold-6f"/>
      <use x="384.960938" xlink:href="#DejaVuSans-Bold-74"/>
      <use x="432.763672" xlink:href="#DejaVuSans-Bold-69"/>
      <use x="467.041016" xlink:href="#DejaVuSans-Bold-64"/>
      <use x="538.623047" xlink:href="#DejaVuSans-Bold-65"/>
     </g>
    </g>
   </g>
   <g id="patch_3">
    <path clip-path="url(#pff6b34ea2c)" d="M 78.943409 373.109813 
L 92.584356 373.109813 
L 92.584356 246.389813 
L 78.943409 246.389813 
z
" style="fill:#1f77b4;opacity:0.9;"/>
   </g>
   <g id="patch_4">
    <path clip-path="url(#pff6b34ea2c)" d="M 95.994593 373.109813 
L 109.63554 373.109813 
L 109.63554 246.389813 
L 95.994593 246.389813 
z
" style="fill:#1f77b4;opacity:0.9;"/>
   </g>
   <g id="patch_5">
    <path clip-path="url(#pff6b34ea2c)" d="M 113.045777 373.109813 
L 126.686725 373.109813 
L 126.686725 246.389813 
L 113.045777 246.389813 
z
" style="fill:#1f77b4;opacity:0.9;"/>
   </g>
   <g id="patch_6">
    <path clip-path="url(#pff6b34ea2c)" d="M 130.096961 373.109813 
L 143.737909 373.109813 
L 143.737909 246.389813 
L 130.096961 246.389813 
z
" style="fill:#1f77b4;opacity:0.9;"/>
   </g>
   <g id="patch_7">
    <path clip-path="url(#pff6b34ea2c)" d="M 147.148146 373.109813 
L 160.789093 373.109813 
L 160.789093 246.389813 
L 147.148146 246.389813 
z
" style="fill:#1f77b4;opacity:0.9;"/>
   </g>
   <g id="patch_8">
    <path clip-path="url(#pff6b34ea2c)" d="M 164.19933 373.109813 
L 177.840277 373.109813 
L 177.840277 246.389813 
L 164.19933 246.389813 
z
" style="fill:#1f77b4;opacity:0.9;"/>
   </g>
   <g id="patch_9">
    <path clip-path="url(#pff6b34ea2c)" d="M 181.250514 373.109813 
L 194.891461 373.109813 
L 194.891461 246.389813 
L 181.250514 246.389813 
z
" style="fill:#1f77b4;opacity:0.9;"/>
   </g>
   <g id="patch_10">
    <path clip-path="url(#pff6b34ea2c)" d="M 198.301698 373.109813 
L 211.942645 373.109813 
L 211.942645 246.389813 
L 198.301698 246.389813 
z
" style="fill:#1f77b4;opacity:0.9;"/>
   </g>
   <g id="patch_11">
    <path clip-path="url(#pff6b34ea2c)" d="M 215.352882 373.109813 
L 228.993829 373.109813 
L 228.993829 245.644401 
L 215.352882 245.644401 
z
" style="fill:#1f77b4;opacity:0.9;"/>
   </g>
   <g id="patch_12">
    <path clip-path="url(#pff6b34ea2c)" d="M 232.404066 373.109813 
L 246.045013 373.109813 
L 246.045013 246.389813 
L 232.404066 246.389813 
z
" style="fill:#1f77b4;opacity:0.9;"/>
   </g>
   <g id="patch_13">
    <path clip-path="url(#pff6b34ea2c)" d="M 249.45525 373.109813 
L 263.096197 373.109813 
L 263.096197 246.389813 
L 249.45525 246.389813 
z
" style="fill:#1f77b4;opacity:0.9;"/>
   </g>
   <g id="patch_14">
    <path clip-path="url(#pff6b34ea2c)" d="M 266.506434 373.109813 
L 280.147382 373.109813 
L 280.147382 248.65267 
L 266.506434 248.65267 
z
" style="fill:#1f77b4;opacity:0.9;"/>
   </g>
   <g id="patch_15">
    <path clip-path="url(#pff6b34ea2c)" d="M 283.557618 373.109813 
L 297.198566 373.109813 
L 297.198566 246.389813 
L 283.557618 246.389813 
z
" style="fill:#1f77b4;opacity:0.9;"/>
   </g>
   <g id="patch_16">
    <path clip-path="url(#pff6b34ea2c)" d="M 300.608803 373.109813 
L 314.24975 373.109813 
L 314.24975 246.389813 
L 300.608803 246.389813 
z
" style="fill:#1f77b4;opacity:0.9;"/>
   </g>
   <g id="patch_17">
    <path clip-path="url(#pff6b34ea2c)" d="M 317.659987 373.109813 
L 331.300934 373.109813 
L 331.300934 246.389813 
L 317.659987 246.389813 
z
" style="fill:#1f77b4;opacity:0.9;"/>
   </g>
   <g id="patch_18">
    <path clip-path="url(#pff6b34ea2c)" d="M 334.711171 373.109813 
L 348.352118 373.109813 
L 348.352118 246.389813 
L 334.711171 246.389813 
z
" style="fill:#1f77b4;opacity:0.9;"/>
   </g>
   <g id="patch_19">
    <path clip-path="url(#pff6b34ea2c)" d="M 351.762355 373.109813 
L 365.403302 373.109813 
L 365.403302 246.389813 
L 351.762355 246.389813 
z
" style="fill:#1f77b4;opacity:0.9;"/>
   </g>
   <g id="patch_20">
    <path clip-path="url(#pff6b34ea2c)" d="M 368.813539 373.109813 
L 382.454486 373.109813 
L 382.454486 246.389813 
L 368.813539 246.389813 
z
" style="fill:#1f77b4;opacity:0.9;"/>
   </g>
   <g id="patch_21">
    <path clip-path="url(#pff6b34ea2c)" d="M 385.864723 373.109813 
L 399.50567 373.109813 
L 399.50567 246.389813 
L 385.864723 246.389813 
z
" style="fill:#1f77b4;opacity:0.9;"/>
   </g>
   <g id="patch_22">
    <path clip-path="url(#pff6b34ea2c)" d="M 402.915907 373.109813 
L 416.556854 373.109813 
L 416.556854 246.389813 
L 402.915907 246.389813 
z
" style="fill:#1f77b4;opacity:0.9;"/>
   </g>
   <g id="patch_23">
    <path clip-path="url(#pff6b34ea2c)" d="M 419.967091 373.109813 
L 433.608039 373.109813 
L 433.608039 246.389813 
L 419.967091 246.389813 
z
" style="fill:#1f77b4;opacity:0.9;"/>
   </g>
   <g id="patch_24">
    <path clip-path="url(#pff6b34ea2c)" d="M 437.018275 373.109813 
L 450.659223 373.109813 
L 450.659223 246.389813 
L 437.018275 246.389813 
z
" style="fill:#1f77b4;opacity:0.9;"/>
   </g>
   <g id="patch_25">
    <path clip-path="url(#pff6b34ea2c)" d="M 454.06946 373.109813 
L 467.710407 373.109813 
L 467.710407 246.389813 
L 454.06946 246.389813 
z
" style="fill:#1f77b4;opacity:0.9;"/>
   </g>
   <g id="patch_26">
    <path clip-path="url(#pff6b34ea2c)" d="M 471.120644 373.109813 
L 484.761591 373.109813 
L 484.761591 246.389813 
L 471.120644 246.389813 
z
" style="fill:#1f77b4;opacity:0.9;"/>
   </g>
   <g id="patch_27">
    <path clip-path="url(#pff6b34ea2c)" d="M 78.943409 246.389813 
L 92.584356 246.389813 
L 92.584356 171.848636 
L 78.943409 171.848636 
z
" style="fill:#ff7f0e;opacity:0.9;"/>
   </g>
   <g id="patch_28">
    <path clip-path="url(#pff6b34ea2c)" d="M 95.994593 246.389813 
L 109.63554 246.389813 
L 109.63554 171.848636 
L 95.994593 171.848636 
z
" style="fill:#ff7f0e;opacity:0.9;"/>
   </g>
   <g id="patch_29">
    <path clip-path="url(#pff6b34ea2c)" d="M 113.045777 246.389813 
L 126.686725 246.389813 
L 126.686725 171.848636 
L 113.045777 171.848636 
z
" style="fill:#ff7f0e;opacity:0.9;"/>
   </g>
   <g id="patch_30">
    <path clip-path="url(#pff6b34ea2c)" d="M 130.096961 246.389813 
L 143.737909 246.389813 
L 143.737909 171.848636 
L 130.096961 171.848636 
z
" style="fill:#ff7f0e;opacity:0.9;"/>
   </g>
   <g id="patch_31">
    <path clip-path="url(#pff6b34ea2c)" d="M 147.148146 246.389813 
L 160.789093 246.389813 
L 160.789093 171.848636 
L 147.148146 171.848636 
z
" style="fill:#ff7f0e;opacity:0.9;"/>
   </g>
   <g id="patch_32">
    <path clip-path="url(#pff6b34ea2c)" d="M 164.19933 246.389813 
L 177.840277 246.389813 
L 177.840277 171.848636 
L 164.19933 171.848636 
z
" style="fill:#ff7f0e;opacity:0.9;"/>
   </g>
   <g id="patch_33">
    <path clip-path="url(#pff6b34ea2c)" d="M 181.250514 246.389813 
L 194.891461 246.389813 
L 194.891461 171.848636 
L 181.250514 171.848636 
z
" style="fill:#ff7f0e;opacity:0.9;"/>
   </g>
   <g id="patch_34">
    <path clip-path="url(#pff6b34ea2c)" d="M 198.301698 246.389813 
L 211.942645 246.389813 
L 211.942645 168.121577 
L 198.301698 168.121577 
z
" style="fill:#ff7f0e;opacity:0.9;"/>
   </g>
   <g id="patch_35">
    <path clip-path="url(#pff6b34ea2c)" d="M 215.352882 245.644401 
L 228.993829 245.644401 
L 228.993829 171.848636 
L 215.352882 171.848636 
z
" style="fill:#ff7f0e;opacity:0.9;"/>
   </g>
   <g id="patch_36">
    <path clip-path="url(#pff6b34ea2c)" d="M 232.404066 246.389813 
L 246.045013 246.389813 
L 246.045013 171.848636 
L 232.404066 171.848636 
z
" style="fill:#ff7f0e;opacity:0.9;"/>
   </g>
   <g id="patch_37">
    <path clip-path="url(#pff6b34ea2c)" d="M 249.45525 246.389813 
L 263.096197 246.389813 
L 263.096197 171.848636 
L 249.45525 171.848636 
z
" style="fill:#ff7f0e;opacity:0.9;"/>
   </g>
   <g id="patch_38">
    <path clip-path="url(#pff6b34ea2c)" d="M 266.506434 248.65267 
L 280.147382 248.65267 
L 280.147382 173.224098 
L 266.506434 173.224098 
z
" style="fill:#ff7f0e;opacity:0.9;"/>
   </g>
   <g id="patch_39">
    <path clip-path="url(#pff6b34ea2c)" d="M 283.557618 246.389813 
L 297.198566 246.389813 
L 297.198566 171.848636 
L 283.557618 171.848636 
z
" style="fill:#ff7f0e;opacity:0.9;"/>
   </g>
   <g id="patch_40">
    <path clip-path="url(#pff6b34ea2c)" d="M 300.608803 246.389813 
L 314.24975 246.389813 
L 314.24975 171.848636 
L 300.608803 171.848636 
z
" style="fill:#ff7f0e;opacity:0.9;"/>
   </g>
   <g id="patch_41">
    <path clip-path="url(#pff6b34ea2c)" d="M 317.659987 246.389813 
L 331.300934 246.389813 
L 331.300934 171.848636 
L 317.659987 171.848636 
z
" style="fill:#ff7f0e;opacity:0.9;"/>
   </g>
   <g id="patch_42">
    <path clip-path="url(#pff6b34ea2c)" d="M 334.711171 246.389813 
L 348.352118 246.389813 
L 348.352118 171.848636 
L 334.711171 171.848636 
z
" style="fill:#ff7f0e;opacity:0.9;"/>
   </g>
   <g id="patch_43">
    <path clip-path="url(#pff6b34ea2c)" d="M 351.762355 246.389813 
L 365.403302 246.389813 
L 365.403302 171.848636 
L 351.762355 171.848636 
z
" style="fill:#ff7f0e;opacity:0.9;"/>
   </g>
   <g id="patch_44">
    <path clip-path="url(#pff6b34ea2c)" d="M 368.813539 246.389813 
L 382.454486 246.389813 
L 382.454486 171.848636 
L 368.813539 171.848636 
z
" style="fill:#ff7f0e;opacity:0.9;"/>
   </g>
   <g id="patch_45">
    <path clip-path="url(#pff6b34ea2c)" d="M 385.864723 246.389813 
L 399.50567 246.389813 
L 399.50567 171.848636 
L 385.864723 171.848636 
z
" style="fill:#ff7f0e;opacity:0.9;"/>
   </g>
   <g id="patch_46">
    <path clip-path="url(#pff6b34ea2c)" d="M 402.915907 246.389813 
L 416.556854 246.389813 
L 416.556854 171.848636 
L 402.915907 171.848636 
z
" style="fill:#ff7f0e;opacity:0.9;"/>
   </g>
   <g id="patch_47">
    <path clip-path="url(#pff6b34ea2c)" d="M 419.967091 246.389813 
L 433.608039 246.389813 
L 433.608039 171.848636 
L 419.967091 171.848636 
z
" style="fill:#ff7f0e;opacity:0.9;"/>
   </g>
   <g id="patch_48">
    <path clip-path="url(#pff6b34ea2c)" d="M 437.018275 246.389813 
L 450.659223 246.389813 
L 450.659223 171.848636 
L 437.018275 171.848636 
z
" style="fill:#ff7f0e;opacity:0.9;"/>
   </g>
   <g id="patch_49">
    <path clip-path="url(#pff6b34ea2c)" d="M 454.06946 246.389813 
L 467.710407 246.389813 
L 467.710407 171.848636 
L 454.06946 171.848636 
z
" style="fill:#ff7f0e;opacity:0.9;"/>
   </g>
   <g id="patch_50">
    <path clip-path="url(#pff6b34ea2c)" d="M 471.120644 246.389813 
L 484.761591 246.389813 
L 484.761591 171.848636 
L 471.120644 171.848636 
z
" style="fill:#ff7f0e;opacity:0.9;"/>
   </g>
   <g id="patch_51">
    <path clip-path="url(#pff6b34ea2c)" d="M 78.943409 171.848636 
L 92.584356 171.848636 
L 92.584356 130.850989 
L 78.943409 130.850989 
z
" style="fill:#2ca02c;opacity:0.9;"/>
   </g>
   <g id="patch_52">
    <path clip-path="url(#pff6b34ea2c)" d="M 95.994593 171.848636 
L 109.63554 171.848636 
L 109.63554 130.850989 
L 95.994593 130.850989 
z
" style="fill:#2ca02c;opacity:0.9;"/>
   </g>
   <g id="patch_53">
    <path clip-path="url(#pff6b34ea2c)" d="M 113.045777 171.848636 
L 126.686725 171.848636 
L 126.686725 130.850989 
L 113.045777 130.850989 
z
" style="fill:#2ca02c;opacity:0.9;"/>
   </g>
   <g id="patch_54">
    <path clip-path="url(#pff6b34ea2c)" d="M 130.096961 171.848636 
L 143.737909 171.848636 
L 143.737909 130.850989 
L 130.096961 130.850989 
z
" style="fill:#2ca02c;opacity:0.9;"/>
   </g>
   <g id="patch_55">
    <path clip-path="url(#pff6b34ea2c)" d="M 147.148146 171.848636 
L 160.789093 171.848636 
L 160.789093 130.850989 
L 147.148146 130.850989 
z
" style="fill:#2ca02c;opacity:0.9;"/>
   </g>
   <g id="patch_56">
    <path clip-path="url(#pff6b34ea2c)" d="M 164.19933 171.848636 
L 177.840277 171.848636 
L 177.840277 130.850989 
L 164.19933 130.850989 
z
" style="fill:#2ca02c;opacity:0.9;"/>
   </g>
   <g id="patch_57">
    <path clip-path="url(#pff6b34ea2c)" d="M 181.250514 171.848636 
L 194.891461 171.848636 
L 194.891461 130.850989 
L 181.250514 130.850989 
z
" style="fill:#2ca02c;opacity:0.9;"/>
   </g>
   <g id="patch_58">
    <path clip-path="url(#pff6b34ea2c)" d="M 198.301698 168.121577 
L 211.942645 168.121577 
L 211.942645 127.12393 
L 198.301698 127.12393 
z
" style="fill:#2ca02c;opacity:0.9;"/>
   </g>
   <g id="patch_59">
    <path clip-path="url(#pff6b34ea2c)" d="M 215.352882 171.848636 
L 228.993829 171.848636 
L 228.993829 130.105577 
L 215.352882 130.105577 
z
" style="fill:#2ca02c;opacity:0.9;"/>
   </g>
   <g id="patch_60">
    <path clip-path="url(#pff6b34ea2c)" d="M 232.404066 171.848636 
L 246.045013 171.848636 
L 246.045013 130.850989 
L 232.404066 130.850989 
z
" style="fill:#2ca02c;opacity:0.9;"/>
   </g>
   <g id="patch_61">
    <path clip-path="url(#pff6b34ea2c)" d="M 249.45525 171.848636 
L 263.096197 171.848636 
L 263.096197 130.850989 
L 249.45525 130.850989 
z
" style="fill:#2ca02c;opacity:0.9;"/>
   </g>
   <g id="patch_62">
    <path clip-path="url(#pff6b34ea2c)" d="M 266.506434 173.224098 
L 280.147382 173.224098 
L 280.147382 131.738384 
L 266.506434 131.738384 
z
" style="fill:#2ca02c;opacity:0.9;"/>
   </g>
   <g id="patch_63">
    <path clip-path="url(#pff6b34ea2c)" d="M 283.557618 171.848636 
L 297.198566 171.848636 
L 297.198566 130.850989 
L 283.557618 130.850989 
z
" style="fill:#2ca02c;opacity:0.9;"/>
   </g>
   <g id="patch_64">
    <path clip-path="url(#pff6b34ea2c)" d="M 300.608803 171.848636 
L 314.24975 171.848636 
L 314.24975 130.850989 
L 300.608803 130.850989 
z
" style="fill:#2ca02c;opacity:0.9;"/>
   </g>
   <g id="patch_65">
    <path clip-path="url(#pff6b34ea2c)" d="M 317.659987 171.848636 
L 331.300934 171.848636 
L 331.300934 130.850989 
L 317.659987 130.850989 
z
" style="fill:#2ca02c;opacity:0.9;"/>
   </g>
   <g id="patch_66">
    <path clip-path="url(#pff6b34ea2c)" d="M 334.711171 171.848636 
L 348.352118 171.848636 
L 348.352118 130.850989 
L 334.711171 130.850989 
z
" style="fill:#2ca02c;opacity:0.9;"/>
   </g>
   <g id="patch_67">
    <path clip-path="url(#pff6b34ea2c)" d="M 351.762355 171.848636 
L 365.403302 171.848636 
L 365.403302 130.850989 
L 351.762355 130.850989 
z
" style="fill:#2ca02c;opacity:0.9;"/>
   </g>
   <g id="patch_68">
    <path clip-path="url(#pff6b34ea2c)" d="M 368.813539 171.848636 
L 382.454486 171.848636 
L 382.454486 130.850989 
L 368.813539 130.850989 
z
" style="fill:#2ca02c;opacity:0.9;"/>
   </g>
   <g id="patch_69">
    <path clip-path="url(#pff6b34ea2c)" d="M 385.864723 171.848636 
L 399.50567 171.848636 
L 399.50567 130.850989 
L 385.864723 130.850989 
z
" style="fill:#2ca02c;opacity:0.9;"/>
   </g>
   <g id="patch_70">
    <path clip-path="url(#pff6b34ea2c)" d="M 402.915907 171.848636 
L 416.556854 171.848636 
L 416.556854 130.850989 
L 402.915907 130.850989 
z
" style="fill:#2ca02c;opacity:0.9;"/>
   </g>
   <g id="patch_71">
    <path clip-path="url(#pff6b34ea2c)" d="M 419.967091 171.848636 
L 433.608039 171.848636 
L 433.608039 130.850989 
L 419.967091 130.850989 
z
" style="fill:#2ca02c;opacity:0.9;"/>
   </g>
   <g id="patch_72">
    <path clip-path="url(#pff6b34ea2c)" d="M 437.018275 171.848636 
L 450.659223 171.848636 
L 450.659223 130.850989 
L 437.018275 130.850989 
z
" style="fill:#2ca02c;opacity:0.9;"/>
   </g>
   <g id="patch_73">
    <path clip-path="url(#pff6b34ea2c)" d="M 454.06946 171.848636 
L 467.710407 171.848636 
L 467.710407 130.850989 
L 454.06946 130.850989 
z
" style="fill:#2ca02c;opacity:0.9;"/>
   </g>
   <g id="patch_74">
    <path clip-path="url(#pff6b34ea2c)" d="M 471.120644 171.848636 
L 484.761591 171.848636 
L 484.761591 130.850989 
L 471.120644 130.850989 
z
" style="fill:#2ca02c;opacity:0.9;"/>
   </g>
   <g id="patch_75">
    <path clip-path="url(#pff6b34ea2c)" d="M 78.943409 130.850989 
L 92.584356 130.850989 
L 92.584356 56.309813 
L 78.943409 56.309813 
z
" style="fill:#d62728;opacity:0.9;"/>
   </g>
   <g id="patch_76">
    <path clip-path="url(#pff6b34ea2c)" d="M 95.994593 130.850989 
L 109.63554 130.850989 
L 109.63554 56.309813 
L 95.994593 56.309813 
z
" style="fill:#d62728;opacity:0.9;"/>
   </g>
   <g id="patch_77">
    <path clip-path="url(#pff6b34ea2c)" d="M 113.045777 130.850989 
L 126.686725 130.850989 
L 126.686725 56.309813 
L 113.045777 56.309813 
z
" style="fill:#d62728;opacity:0.9;"/>
   </g>
   <g id="patch_78">
    <path clip-path="url(#pff6b34ea2c)" d="M 130.096961 130.850989 
L 143.737909 130.850989 
L 143.737909 56.309813 
L 130.096961 56.309813 
z
" style="fill:#d62728;opacity:0.9;"/>
   </g>
   <g id="patch_79">
    <path clip-path="url(#pff6b34ea2c)" d="M 147.148146 130.850989 
L 160.789093 130.850989 
L 160.789093 56.309813 
L 147.148146 56.309813 
z
" style="fill:#d62728;opacity:0.9;"/>
   </g>
   <g id="patch_80">
    <path clip-path="url(#pff6b34ea2c)" d="M 164.19933 130.850989 
L 177.840277 130.850989 
L 177.840277 56.309813 
L 164.19933 56.309813 
z
" style="fill:#d62728;opacity:0.9;"/>
   </g>
   <g id="patch_81">
    <path clip-path="url(#pff6b34ea2c)" d="M 181.250514 130.850989 
L 194.891461 130.850989 
L 194.891461 56.309813 
L 181.250514 56.309813 
z
" style="fill:#d62728;opacity:0.9;"/>
   </g>
   <g id="patch_82">
    <path clip-path="url(#pff6b34ea2c)" d="M 198.301698 127.12393 
L 211.942645 127.12393 
L 211.942645 56.309813 
L 198.301698 56.309813 
z
" style="fill:#d62728;opacity:0.9;"/>
   </g>
   <g id="patch_83">
    <path clip-path="url(#pff6b34ea2c)" d="M 215.352882 130.105577 
L 228.993829 130.105577 
L 228.993829 56.309813 
L 215.352882 56.309813 
z
" style="fill:#d62728;opacity:0.9;"/>
   </g>
   <g id="patch_84">
    <path clip-path="url(#pff6b34ea2c)" d="M 232.404066 130.850989 
L 246.045013 130.850989 
L 246.045013 56.309813 
L 232.404066 56.309813 
z
" style="fill:#d62728;opacity:0.9;"/>
   </g>
   <g id="patch_85">
    <path clip-path="url(#pff6b34ea2c)" d="M 249.45525 130.850989 
L 263.096197 130.850989 
L 263.096197 56.309813 
L 249.45525 56.309813 
z
" style="fill:#d62728;opacity:0.9;"/>
   </g>
   <g id="patch_86">
    <path clip-path="url(#pff6b34ea2c)" d="M 266.506434 131.738384 
L 280.147382 131.738384 
L 280.147382 56.309813 
L 266.506434 56.309813 
z
" style="fill:#d62728;opacity:0.9;"/>
   </g>
   <g id="patch_87">
    <path clip-path="url(#pff6b34ea2c)" d="M 283.557618 130.850989 
L 297.198566 130.850989 
L 297.198566 56.309813 
L 283.557618 56.309813 
z
" style="fill:#d62728;opacity:0.9;"/>
   </g>
   <g id="patch_88">
    <path clip-path="url(#pff6b34ea2c)" d="M 300.608803 130.850989 
L 314.24975 130.850989 
L 314.24975 56.309813 
L 300.608803 56.309813 
z
" style="fill:#d62728;opacity:0.9;"/>
   </g>
   <g id="patch_89">
    <path clip-path="url(#pff6b34ea2c)" d="M 317.659987 130.850989 
L 331.300934 130.850989 
L 331.300934 56.309813 
L 317.659987 56.309813 
z
" style="fill:#d62728;opacity:0.9;"/>
   </g>
   <g id="patch_90">
    <path clip-path="url(#pff6b34ea2c)" d="M 334.711171 130.850989 
L 348.352118 130.850989 
L 348.352118 56.309813 
L 334.711171 56.309813 
z
" style="fill:#d62728;opacity:0.9;"/>
   </g>
   <g id="patch_91">
    <path clip-path="url(#pff6b34ea2c)" d="M 351.762355 130.850989 
L 365.403302 130.850989 
L 365.403302 56.309813 
L 351.762355 56.309813 
z
" style="fill:#d62728;opacity:0.9;"/>
   </g>
   <g id="patch_92">
    <path clip-path="url(#pff6b34ea2c)" d="M 368.813539 130.850989 
L 382.454486 130.850989 
L 382.454486 56.309813 
L 368.813539 56.309813 
z
" style="fill:#d62728;opacity:0.9;"/>
   </g>
   <g id="patch_93">
    <path clip-path="url(#pff6b34ea2c)" d="M 385.864723 130.850989 
L 399.50567 130.850989 
L 399.50567 56.309813 
L 385.864723 56.309813 
z
" style="fill:#d62728;opacity:0.9;"/>
   </g>
   <g id="patch_94">
    <path clip-path="url(#pff6b34ea2c)" d="M 402.915907 130.850989 
L 416.556854 130.850989 
L 416.556854 56.309813 
L 402.915907 56.309813 
z
" style="fill:#d62728;opacity:0.9;"/>
   </g>
   <g id="patch_95">
    <path clip-path="url(#pff6b34ea2c)" d="M 419.967091 130.850989 
L 433.608039 130.850989 
L 433.608039 56.309813 
L 419.967091 56.309813 
z
" style="fill:#d62728;opacity:0.9;"/>
   </g>
   <g id="patch_96">
    <path clip-path="url(#pff6b34ea2c)" d="M 437.018275 130.850989 
L 450.659223 130.850989 
L 450.659223 56.309813 
L 437.018275 56.309813 
z
" style="fill:#d62728;opacity:0.9;"/>
   </g>
   <g id="patch_97">
    <path clip-path="url(#pff6b34ea2c)" d="M 454.06946 130.850989 
L 467.710407 130.850989 
L 467.710407 56.309813 
L 454.06946 56.309813 
z
" style="fill:#d62728;opacity:0.9;"/>
   </g>
   <g id="patch_98">
    <path clip-path="url(#pff6b34ea2c)" d="M 471.120644 130.850989 
L 484.761591 130.850989 
L 484.761591 56.309813 
L 471.120644 56.309813 
z
" style="fill:#d62728;opacity:0.9;"/>
   </g>
   <g id="patch_99">
    <path d="M 58.6525 373.109813 
L 58.6525 40.469812 
" style="fill:none;stroke:#ffffff;stroke-linecap:square;stroke-linejoin:miter;"/>
   </g>
   <g id="patch_100">
    <path d="M 505.0525 373.109813 
L 505.0525 40.469812 
" style="fill:none;stroke:#ffffff;stroke-linecap:square;stroke-linejoin:miter;"/>
   </g>
   <g id="patch_101">
    <path d="M 58.6525 373.109813 
L 505.0525 373.109813 
" style="fill:none;stroke:#ffffff;stroke-linecap:square;stroke-linejoin:miter;"/>
   </g>
   <g id="patch_102">
    <path d="M 58.6525 40.469812 
L 505.0525 40.469812 
" style="fill:none;stroke:#ffffff;stroke-linecap:square;stroke-linejoin:miter;"/>
   </g>
   <g id="text_33">
    <!-- Nucleotide proportions -->
    <defs>
     <path id="DejaVuSans-Bold-20"/>
     <path d="M 25.875 7.90625 
L 25.875 -20.796875 
L 8.40625 -20.796875 
L 8.40625 54.6875 
L 25.875 54.6875 
L 25.875 46.6875 
Q 29.5 51.46875 33.890625 53.734375 
Q 38.28125 56 44 56 
Q 54.109375 56 60.59375 47.96875 
Q 67.09375 39.9375 67.09375 27.296875 
Q 67.09375 14.65625 60.59375 6.609375 
Q 54.109375 -1.421875 44 -1.421875 
Q 38.28125 -1.421875 33.890625 0.84375 
Q 29.5 3.125 25.875 7.90625 
M 37.5 43.3125 
Q 31.890625 43.3125 28.875 39.1875 
Q 25.875 35.0625 25.875 27.296875 
Q 25.875 19.53125 28.875 15.40625 
Q 31.890625 11.28125 37.5 11.28125 
Q 43.109375 11.28125 46.0625 15.375 
Q 49.03125 19.484375 49.03125 27.296875 
Q 49.03125 35.109375 46.0625 39.203125 
Q 43.109375 43.3125 37.5 43.3125 
" id="DejaVuSans-Bold-70"/>
     <path d="M 49.03125 39.796875 
Q 46.734375 40.875 44.453125 41.375 
Q 42.1875 41.890625 39.890625 41.890625 
Q 33.15625 41.890625 29.515625 37.5625 
Q 25.875 33.25 25.875 25.203125 
L 25.875 0 
L 8.40625 0 
L 8.40625 54.6875 
L 25.875 54.6875 
L 25.875 45.703125 
Q 29.25 51.078125 33.609375 53.53125 
Q 37.984375 56 44.09375 56 
Q 44.96875 56 45.984375 55.921875 
Q 47.015625 55.859375 48.96875 55.609375 
z
" id="DejaVuSans-Bold-72"/>
     <path d="M 63.375 33.296875 
L 63.375 0 
L 45.796875 0 
L 45.796875 5.421875 
L 45.796875 25.484375 
Q 45.796875 32.5625 45.484375 35.25 
Q 45.171875 37.9375 44.390625 39.203125 
Q 43.359375 40.921875 41.59375 41.875 
Q 39.84375 42.828125 37.59375 42.828125 
Q 32.125 42.828125 29 38.59375 
Q 25.875 34.375 25.875 26.90625 
L 25.875 0 
L 8.40625 0 
L 8.40625 54.6875 
L 25.875 54.6875 
L 25.875 46.6875 
Q 29.828125 51.46875 34.265625 53.734375 
Q 38.71875 56 44.09375 56 
Q 53.5625 56 58.46875 50.1875 
Q 63.375 44.390625 63.375 33.296875 
" id="DejaVuSans-Bold-6e"/>
     <path d="M 51.125 52.984375 
L 51.125 39.703125 
Q 45.515625 42.046875 40.28125 43.21875 
Q 35.0625 44.390625 30.421875 44.390625 
Q 25.4375 44.390625 23.015625 43.140625 
Q 20.609375 41.890625 20.609375 39.3125 
Q 20.609375 37.203125 22.4375 36.078125 
Q 24.265625 34.96875 29 34.421875 
L 32.078125 33.984375 
Q 45.515625 32.28125 50.140625 28.375 
Q 54.78125 24.46875 54.78125 16.109375 
Q 54.78125 7.375 48.328125 2.96875 
Q 41.890625 -1.421875 29.109375 -1.421875 
Q 23.6875 -1.421875 17.890625 -0.5625 
Q 12.109375 0.296875 6 2 
L 6 15.28125 
Q 11.234375 12.75 16.71875 11.46875 
Q 22.21875 10.203125 27.875 10.203125 
Q 33.015625 10.203125 35.59375 11.609375 
Q 38.1875 13.03125 38.1875 15.828125 
Q 38.1875 18.171875 36.40625 19.3125 
Q 34.625 20.453125 29.296875 21.09375 
L 26.21875 21.484375 
Q 14.546875 22.953125 9.859375 26.90625 
Q 5.171875 30.859375 5.171875 38.921875 
Q 5.171875 47.609375 11.125 51.796875 
Q 17.09375 56 29.390625 56 
Q 34.234375 56 39.546875 55.265625 
Q 44.875 54.546875 51.125 52.984375 
" id="DejaVuSans-Bold-73"/>
    </defs>
    <g style="fill:#808080;" transform="translate(190.716875 17.837812)scale(0.14 -0.14)">
     <use xlink:href="#DejaVuSans-Bold-4e"/>
     <use x="83.691406" xlink:href="#DejaVuSans-Bold-75"/>
     <use x="154.882812" xlink:href="#DejaVuSans-Bold-63"/>
     <use x="214.160156" xlink:href="#DejaVuSans-Bold-6c"/>
     <use x="248.4375" xlink:href="#DejaVuSans-Bold-65"/>
     <use x="316.259766" xlink:href="#DejaVuSans-Bold-6f"/>
     <use x="384.960938" xlink:href="#DejaVuSans-Bold-74"/>
     <use x="432.763672" xlink:href="#DejaVuSans-Bold-69"/>
     <use x="467.041016" xlink:href="#DejaVuSans-Bold-64"/>
     <use x="538.623047" xlink:href="#DejaVuSans-Bold-65"/>
     <use x="606.445312" xlink:href="#DejaVuSans-Bold-20"/>
     <use x="641.259766" xlink:href="#DejaVuSans-Bold-70"/>
     <use x="712.841797" xlink:href="#DejaVuSans-Bold-72"/>
     <use x="762.158203" xlink:href="#DejaVuSans-Bold-6f"/>
     <use x="830.859375" xlink:href="#DejaVuSans-Bold-70"/>
     <use x="902.441406" xlink:href="#DejaVuSans-Bold-6f"/>
     <use x="971.142578" xlink:href="#DejaVuSans-Bold-72"/>
     <use x="1020.458984" xlink:href="#DejaVuSans-Bold-74"/>
     <use x="1068.261719" xlink:href="#DejaVuSans-Bold-69"/>
     <use x="1102.539062" xlink:href="#DejaVuSans-Bold-6f"/>
     <use x="1171.240234" xlink:href="#DejaVuSans-Bold-6e"/>
     <use x="1242.431641" xlink:href="#DejaVuSans-Bold-73"/>
    </g>
   </g>
   <g id="legend_1">
    <g id="patch_103">
     <path d="M 526.704062 187.532 
L 546.704062 187.532 
L 546.704062 180.532 
L 526.704062 180.532 
z
" style="fill:#1f77b4;opacity:0.9;"/>
    </g>
    <g id="text_34">
     <!-- a -->
     <g style="fill:#262626;" transform="translate(554.704062 187.532)scale(0.1 -0.1)">
      <use xlink:href="#DejaVuSans-61"/>
     </g>
    </g>
    <g id="patch_104">
     <path d="M 526.704062 202.210125 
L 546.704062 202.210125 
L 546.704062 195.210125 
L 526.704062 195.210125 
z
" style="fill:#ff7f0e;opacity:0.9;"/>
    </g>
    <g id="text_35">
     <!-- t -->
     <defs>
      <path d="M 18.3125 70.21875 
L 18.3125 54.6875 
L 36.8125 54.6875 
L 36.8125 47.703125 
L 18.3125 47.703125 
L 18.3125 18.015625 
Q 18.3125 11.328125 20.140625 9.421875 
Q 21.96875 7.515625 27.59375 7.515625 
L 36.8125 7.515625 
L 36.8125 0 
L 27.59375 0 
Q 17.1875 0 13.234375 3.875 
Q 9.28125 7.765625 9.28125 18.015625 
L 9.28125 47.703125 
L 2.6875 47.703125 
L 2.6875 54.6875 
L 9.28125 54.6875 
L 9.28125 70.21875 
z
" id="DejaVuSans-74"/>
     </defs>
     <g style="fill:#262626;" transform="translate(554.704062 202.210125)scale(0.1 -0.1)">
      <use xlink:href="#DejaVuSans-74"/>
     </g>
    </g>
    <g id="patch_105">
     <path d="M 526.704062 216.88825 
L 546.704062 216.88825 
L 546.704062 209.88825 
L 526.704062 209.88825 
z
" style="fill:#2ca02c;opacity:0.9;"/>
    </g>
    <g id="text_36">
     <!-- g -->
     <g style="fill:#262626;" transform="translate(554.704062 216.88825)scale(0.1 -0.1)">
      <use xlink:href="#DejaVuSans-67"/>
     </g>
    </g>
    <g id="patch_106">
     <path d="M 526.704062 231.566375 
L 546.704062 231.566375 
L 546.704062 224.566375 
L 526.704062 224.566375 
z
" style="fill:#d62728;opacity:0.9;"/>
    </g>
    <g id="text_37">
     <!-- c -->
     <g style="fill:#262626;" transform="translate(554.704062 231.566375)scale(0.1 -0.1)">
      <use xlink:href="#DejaVuSans-63"/>
     </g>
    </g>
   </g>
  </g>
 </g>
 <defs>
  <clipPath id="pff6b34ea2c">
   <rect height="332.64" width="446.4" x="58.6525" y="40.469812"/>
  </clipPath>
 </defs>
</svg>
